<?xml version="1.0" encoding="utf-8"?>
<!-- Generator: Adobe Illustrator 19.1.0, SVG Export Plug-In . SVG Version: 6.00 Build 0)  -->
<svg version="1.0" xmlns="http://www.w3.org/2000/svg" xmlns:xlink="http://www.w3.org/1999/xlink" x="0px" y="0px"
	 viewBox="0 0 1700 1080.934" enable-background="new 0 0 1700 1080.934" xml:space="preserve">
<g id="background">
	<g>
		<defs>
			<rect id="SVGID_1_" x="-8.337" y="-13.056" width="1721.168" height="1108.991"/>
		</defs>
		<linearGradient id="SVGID_2_" gradientUnits="userSpaceOnUse" x1="-100.9628" y1="7.1516" x2="1400.4365" y2="848.7084">
			<stop  offset="0" style="stop-color:#001A68;stop-opacity:0.2"/>
			<stop  offset="1" style="stop-color:#FFFFFF;stop-opacity:0"/>
		</linearGradient>
		<use xlink:href="#SVGID_1_"  overflow="visible" fill="url(#SVGID_2_)"/>
		<clipPath id="SVGID_3_">
			<use xlink:href="#SVGID_1_"  overflow="visible"/>
		</clipPath>
		<g clip-path="url(#SVGID_3_)">
			<g opacity="0.64">
				
					<radialGradient id="SVGID_4_" cx="375.8787" cy="-153.3062" r="227.2118" fx="499.4613" fy="-174.1948" gradientTransform="matrix(0.7046 0.7096 -0.7096 0.7046 518.0879 -108.3334)" gradientUnits="userSpaceOnUse">
					<stop  offset="0" style="stop-color:#CEC2DF"/>
					<stop  offset="0.3375" style="stop-color:#ADB6D9"/>
					<stop  offset="0.7698" style="stop-color:#89A9D2"/>
					<stop  offset="1" style="stop-color:#7BA4CF"/>
				</radialGradient>
				<path fill="url(#SVGID_4_)" d="M695.472,188.425c-9.515,9.449-24.883,9.39-34.328-0.121L554.573,80.985
					c-9.448-9.514-9.396-24.879,0.119-34.328L662.013-59.917c9.511-9.444,24.879-9.392,34.327,0.122L802.912,47.524
					c9.445,9.512,9.393,24.883-0.118,34.327L695.472,188.425z"/>
			</g>
			<g opacity="0.64">
				<linearGradient id="SVGID_5_" gradientUnits="userSpaceOnUse" x1="204.0697" y1="562.8743" x2="466.5077" y2="562.8743">
					<stop  offset="0" style="stop-color:#004CAC"/>
					<stop  offset="1" style="stop-color:#0051FE"/>
				</linearGradient>
				<path fill="url(#SVGID_5_)" d="M352.02,687.045c-9.513,9.447-24.88,9.389-34.327-0.124L211.122,579.602
					c-9.447-9.513-9.397-24.881,0.115-34.327l107.319-106.572c9.513-9.447,24.88-9.388,34.327,0.125l106.572,107.319
					c9.447,9.513,9.397,24.88-0.116,34.327L352.02,687.045z"/>
			</g>
			<g opacity="0.46">
				
					<radialGradient id="SVGID_6_" cx="196.9814" cy="-1.3084" r="141.174" fx="273.7672" fy="-14.2871" gradientTransform="matrix(0.7046 0.7096 -0.7096 0.7046 518.0879 -108.3334)" gradientUnits="userSpaceOnUse">
					<stop  offset="0.0121" style="stop-color:#BCCEEA"/>
					<stop  offset="0.0725" style="stop-color:#B3CAE8"/>
					<stop  offset="0.508" style="stop-color:#79AFD9"/>
					<stop  offset="0.8296" style="stop-color:#549ED0"/>
					<stop  offset="1" style="stop-color:#4698CC"/>
				</radialGradient>
				<path fill="url(#SVGID_6_)" d="M535.879,116.302c-5.911,5.869-15.464,5.835-21.333-0.076l-66.215-66.679
					c-5.868-5.909-5.835-15.462,0.076-21.331l66.68-66.216c5.911-5.869,15.46-5.834,21.329,0.076l66.215,66.679
					c5.869,5.911,5.839,15.461-0.071,21.331L535.879,116.302z"/>
			</g>
			<g>
				<path fill="#BF4FDE" d="M67.713-46.915c-14.048,13.95-14.131,36.647-0.182,50.694l157.394,158.498
					c13.95,14.048,36.649,14.125,50.697,0.175L434.117,5.06c14.051-13.953,14.128-36.646,0.177-50.694L276.901-204.132
					c-13.949-14.047-36.641-14.128-50.692-0.175L67.713-46.915z"/>
			</g>
			<g opacity="0.64">
				<linearGradient id="SVGID_7_" gradientUnits="userSpaceOnUse" x1="375.0036" y1="299.1834" x2="762.5876" y2="299.1834">
					<stop  offset="0" style="stop-color:#004CAC"/>
					<stop  offset="1" style="stop-color:#0051FE"/>
				</linearGradient>
				<path fill="url(#SVGID_7_)" d="M385.593,273.195c-14.048,13.95-14.13,36.648-0.18,50.697l157.39,158.495
					c13.952,14.05,36.651,14.127,50.699,0.177l158.496-157.391c14.051-13.953,14.128-36.646,0.175-50.697l-157.39-158.495
					c-13.95-14.048-36.643-14.131-50.695-0.177L385.593,273.195z"/>
			</g>
			<g opacity="0.64">
				<linearGradient id="SVGID_8_" gradientUnits="userSpaceOnUse" x1="-47.477" y1="379.8455" x2="340.1071" y2="379.8455">
					<stop  offset="0" style="stop-color:#00FF87"/>
					<stop  offset="1" style="stop-color:#00917E"/>
				</linearGradient>
				<path fill="url(#SVGID_8_)" d="M-36.887,353.857c-14.048,13.95-14.132,36.646-0.182,50.694L120.327,563.05
					c13.95,14.048,36.648,14.125,50.697,0.175l158.495-157.39c14.048-13.95,14.13-36.648,0.179-50.696L172.302,196.639
					c-13.95-14.048-36.646-14.123-50.694-0.173L-36.887,353.857z"/>
			</g>
			<g opacity="0.64">
				<path fill="#BF6695" d="M-75.202-47.158c-9.513,9.447-9.562,24.814-0.117,34.326L31.254,94.489
					c9.447,9.513,24.814,9.571,34.327,0.124L172.903-11.962c9.511-9.444,9.565-24.816,0.118-34.329L66.449-153.611
					c-9.445-9.512-24.818-9.565-34.328-0.121L-75.202-47.158z"/>
			</g>
			<g opacity="0.64">
				<linearGradient id="SVGID_9_" gradientUnits="userSpaceOnUse" x1="444.8002" y1="501.309" x2="707.2413" y2="501.309">
					<stop  offset="0" style="stop-color:#00FFFF"/>
					<stop  offset="1" style="stop-color:#009FFF"/>
				</linearGradient>
				<path fill="url(#SVGID_9_)" d="M451.968,483.711c-9.513,9.447-9.562,24.814-0.116,34.327l106.569,107.317
					c9.449,9.515,24.816,9.573,34.329,0.127l107.323-106.575c9.511-9.444,9.565-24.816,0.116-34.332L593.62,377.258
					c-9.446-9.513-24.819-9.566-34.329-0.122L451.968,483.711z"/>
			</g>
			<g opacity="0.64">
				<linearGradient id="SVGID_10_" gradientUnits="userSpaceOnUse" x1="239.286" y1="231.5126" x2="501.725" y2="231.5126">
					<stop  offset="0" style="stop-color:#00FF87"/>
					<stop  offset="1" style="stop-color:#00917E"/>
				</linearGradient>
				<path fill="url(#SVGID_10_)" d="M246.455,213.914c-9.514,9.448-9.563,24.815-0.117,34.328l106.574,107.321
					c9.442,9.509,24.81,9.567,34.324,0.119l107.317-106.569c9.515-9.449,9.569-24.821,0.127-34.329L388.105,107.463
					c-9.447-9.513-24.818-9.567-34.333-0.118L246.455,213.914z"/>
			</g>
			<g opacity="0.64">
				<linearGradient id="SVGID_11_" gradientUnits="userSpaceOnUse" x1="329.7122" y1="19.5621" x2="592.1497" y2="19.5621">
					<stop  offset="0" style="stop-color:#00FF87"/>
					<stop  offset="1" style="stop-color:#00917E"/>
				</linearGradient>
				<path fill="url(#SVGID_11_)" d="M336.881,1.959c-9.514,9.448-9.564,24.816-0.116,34.331l106.574,107.321
					c9.444,9.511,24.813,9.568,34.327,0.12L584.98,37.165c9.514-9.448,9.564-24.816,0.12-34.327L478.526-104.483
					c-9.449-9.515-24.817-9.572-34.331-0.124L336.881,1.959z"/>
			</g>
			<g opacity="0.46">
				
					<radialGradient id="SVGID_12_" cx="-907.061" cy="379.5428" r="141.1723" fx="-830.2761" fy="366.5642" gradientTransform="matrix(-0.7046 -0.7096 -0.7096 0.7046 -287.3888 -919.4612)" gradientUnits="userSpaceOnUse">
					<stop  offset="0" style="stop-color:#CEECFB"/>
					<stop  offset="0.3392" style="stop-color:#84D6F2"/>
					<stop  offset="0.643" style="stop-color:#49C5EA"/>
					<stop  offset="0.8657" style="stop-color:#24BAE6"/>
					<stop  offset="0.9836" style="stop-color:#16B6E4"/>
				</radialGradient>
				<path fill="url(#SVGID_12_)" d="M-4.196,112.938c-5.913,5.872-5.941,15.42-0.073,21.329l66.213,66.678
					c5.872,5.913,15.417,5.948,21.33,0.077l66.681-66.217c5.912-5.87,5.944-15.417,0.072-21.33L83.814,46.797
					c-5.867-5.909-15.417-5.946-21.329-0.076L-4.196,112.938z"/>
			</g>
			<g opacity="0.46">
				
					<radialGradient id="SVGID_13_" cx="-836.6931" cy="472.7045" r="116.8532" fx="-773.1356" fy="461.9617" gradientTransform="matrix(-0.7046 -0.7096 -0.7096 0.7046 -287.3888 -919.4612)" gradientUnits="userSpaceOnUse">
					<stop  offset="0" style="stop-color:#CEECFB"/>
					<stop  offset="0.3392" style="stop-color:#84D6F2"/>
					<stop  offset="0.643" style="stop-color:#49C5EA"/>
					<stop  offset="0.8657" style="stop-color:#24BAE6"/>
					<stop  offset="0.9836" style="stop-color:#16B6E4"/>
				</radialGradient>
				<path fill="url(#SVGID_13_)" d="M-104.963,107.752c-4.894,4.86-4.914,12.762-0.056,17.653l54.809,55.194
					c4.86,4.894,12.756,4.924,17.65,0.064l55.193-54.809c4.894-4.86,4.926-12.763,0.066-17.657l-54.809-55.194
					c-4.858-4.892-12.766-4.92-17.66-0.061L-104.963,107.752z"/>
			</g>
			<g opacity="0.46">
				
					<radialGradient id="SVGID_14_" cx="-1589.4878" cy="472.7045" r="116.8532" fx="-1525.9303" fy="461.9617" gradientTransform="matrix(-0.7046 -0.7096 -0.7096 0.7046 -287.3888 -919.4612)" gradientUnits="userSpaceOnUse">
					<stop  offset="0" style="stop-color:#CEECFB"/>
					<stop  offset="0.3392" style="stop-color:#84D6F2"/>
					<stop  offset="0.643" style="stop-color:#49C5EA"/>
					<stop  offset="0.8657" style="stop-color:#24BAE6"/>
					<stop  offset="0.9836" style="stop-color:#16B6E4"/>
				</radialGradient>
				<path fill="url(#SVGID_14_)" d="M425.48,641.916c-4.894,4.86-4.917,12.758-0.057,17.652l54.811,55.196
					c4.86,4.894,12.756,4.924,17.65,0.064l55.193-54.809c4.894-4.86,4.926-12.763,0.066-17.657l-54.811-55.196
					c-4.86-4.894-12.765-4.919-17.659-0.06L425.48,641.916z"/>
			</g>
			<g opacity="0.64">
				<linearGradient id="SVGID_15_" gradientUnits="userSpaceOnUse" x1="-88.1818" y1="570.6926" x2="299.4075" y2="570.6926">
					<stop  offset="0" style="stop-color:#004CAC"/>
					<stop  offset="1" style="stop-color:#0051FE"/>
				</linearGradient>
				<path fill="url(#SVGID_15_)" d="M130.318,754.074c-14.048,13.95-36.744,13.875-50.697-0.175L-77.771,595.403
					c-13.95-14.048-13.871-36.749,0.177-50.699L80.905,387.309c14.048-13.95,36.749-13.871,50.699,0.177l157.392,158.497
					c13.953,14.05,13.869,36.746-0.18,50.697L130.318,754.074z"/>
			</g>
			<g opacity="0.64">
				<linearGradient id="SVGID_16_" gradientUnits="userSpaceOnUse" x1="-129.1495" y1="152.2661" x2="133.2917" y2="152.2661">
					<stop  offset="0" style="stop-color:#00FF87"/>
					<stop  offset="1" style="stop-color:#00917E"/>
				</linearGradient>
				<path fill="url(#SVGID_16_)" d="M18.802,276.437c-9.515,9.449-24.883,9.39-34.327-0.12l-106.574-107.322
					c-9.447-9.513-9.396-24.879,0.119-34.328L-14.658,28.094c9.511-9.444,24.88-9.391,34.327,0.122l106.574,107.321
					c9.444,9.511,9.392,24.881-0.119,34.326L18.802,276.437z"/>
			</g>
			<g opacity="0.64">
				<linearGradient id="SVGID_17_" gradientUnits="userSpaceOnUse" x1="505.0752" y1="865.9919" x2="767.5137" y2="865.9919">
					<stop  offset="0" style="stop-color:#00FFFF"/>
					<stop  offset="1" style="stop-color:#009FFF"/>
				</linearGradient>
				<path fill="url(#SVGID_17_)" d="M653.026,990.163c-9.513,9.447-24.878,9.391-34.329-0.127l-106.57-107.317
					c-9.447-9.513-9.397-24.88,0.116-34.327L619.563,741.82c9.513-9.447,24.88-9.389,34.327,0.124l106.57,107.317
					c9.451,9.517,9.399,24.883-0.114,34.329L653.026,990.163z"/>
			</g>
			<g opacity="0.64">
				<linearGradient id="SVGID_18_" gradientUnits="userSpaceOnUse" x1="676.0078" y1="602.2997" x2="1063.5923" y2="602.2997">
					<stop  offset="0" style="stop-color:#00FFFF"/>
					<stop  offset="1" style="stop-color:#009FFF"/>
				</linearGradient>
				<path fill="url(#SVGID_18_)" d="M686.598,576.312c-14.048,13.95-14.132,36.647-0.182,50.695l157.395,158.499
					c13.95,14.048,36.646,14.123,50.695,0.173l158.496-157.392c14.051-13.953,14.13-36.644,0.179-50.692L895.786,419.096
					c-13.95-14.048-36.641-14.128-50.692-0.175L686.598,576.312z"/>
			</g>
			<g opacity="0.64">
				<linearGradient id="SVGID_19_" gradientUnits="userSpaceOnUse" x1="247.7658" y1="680.0565" x2="635.3489" y2="680.0565">
					<stop  offset="0" style="stop-color:#00FFFF"/>
					<stop  offset="1" style="stop-color:#009FFF"/>
				</linearGradient>
				<path fill="url(#SVGID_19_)" d="M258.353,654.068c-14.046,13.948-14.128,36.646-0.175,50.697l157.39,158.495
					c13.95,14.048,36.651,14.127,50.697,0.179l158.497-157.393c14.048-13.95,14.125-36.648,0.175-50.696l-157.39-158.495
					c-13.953-14.05-36.648-14.13-50.697-0.179L258.353,654.068z"/>
			</g>
			<g opacity="0.64">
				<linearGradient id="SVGID_20_" gradientUnits="userSpaceOnUse" x1="218.6351" y1="273.5564" x2="481.0749" y2="273.5564">
					<stop  offset="0" style="stop-color:#004CAC"/>
					<stop  offset="1" style="stop-color:#0051FE"/>
				</linearGradient>
				<path fill="url(#SVGID_20_)" d="M225.803,255.96c-9.513,9.447-9.562,24.814-0.118,34.325l106.574,107.322
					c9.445,9.511,24.812,9.569,34.325,0.122l107.323-106.575c9.511-9.444,9.565-24.816,0.12-34.327L367.453,149.505
					c-9.444-9.511-24.816-9.564-34.327-0.12L225.803,255.96z"/>
			</g>
			<g opacity="0.64">
				<linearGradient id="SVGID_21_" gradientUnits="userSpaceOnUse" x1="745.8053" y1="804.4252" x2="1008.2451" y2="804.4252">
					<stop  offset="0" style="stop-color:#00FFFF"/>
					<stop  offset="1" style="stop-color:#009FFF"/>
				</linearGradient>
				<path fill="url(#SVGID_21_)" d="M752.973,786.828c-9.513,9.447-9.562,24.814-0.118,34.325l106.574,107.322
					c9.444,9.511,24.812,9.569,34.325,0.122l107.323-106.575c9.511-9.444,9.564-24.817,0.12-34.327L894.623,680.374
					c-9.444-9.511-24.816-9.564-34.327-0.12L752.973,786.828z"/>
			</g>
			<g opacity="0.64">
				<linearGradient id="SVGID_22_" gradientUnits="userSpaceOnUse" x1="540.2913" y1="534.6307" x2="802.7323" y2="534.6307">
					<stop  offset="0" style="stop-color:#00FFFF"/>
					<stop  offset="1" style="stop-color:#009FFF"/>
				</linearGradient>
				<path fill="url(#SVGID_22_)" d="M547.46,517.031c-9.514,9.448-9.563,24.815-0.117,34.328l106.574,107.322
					c9.444,9.511,24.812,9.569,34.326,0.121L795.56,552.233c9.515-9.449,9.569-24.82,0.124-34.331L689.111,410.58
					c-9.447-9.513-24.818-9.567-34.333-0.118L547.46,517.031z"/>
			</g>
			<g opacity="0.64">
				<linearGradient id="SVGID_23_" gradientUnits="userSpaceOnUse" x1="630.7194" y1="322.6791" x2="893.1528" y2="322.6791">
					<stop  offset="0" style="stop-color:#004CAC"/>
					<stop  offset="1" style="stop-color:#0051FE"/>
				</linearGradient>
				<path fill="url(#SVGID_23_)" d="M637.889,305.078c-9.514,9.448-9.564,24.816-0.118,34.329l106.572,107.319
					c9.444,9.511,24.813,9.568,34.327,0.12L885.983,340.28c9.514-9.448,9.565-24.816,0.12-34.327L779.532,198.634
					c-9.447-9.513-24.815-9.57-34.329-0.122L637.889,305.078z"/>
			</g>
			<g opacity="0.64">
				<linearGradient id="SVGID_24_" gradientUnits="userSpaceOnUse" x1="292.3547" y1="426.9888" x2="455.4154" y2="426.9888">
					<stop  offset="0" style="stop-color:#004CAC"/>
					<stop  offset="1" style="stop-color:#0051FE"/>
				</linearGradient>
				<path fill="url(#SVGID_24_)" d="M296.81,416.056c-5.913,5.872-5.944,15.417-0.075,21.328l66.213,66.678
					c5.872,5.913,15.417,5.948,21.33,0.077l66.681-66.217c5.912-5.87,5.944-15.417,0.072-21.33l-66.213-66.678
					c-5.869-5.911-15.416-5.945-21.328-0.075L296.81,416.056z"/>
			</g>
			<g opacity="0.64">
				<linearGradient id="SVGID_25_" gradientUnits="userSpaceOnUse" x1="192.3571" y1="419.9205" x2="327.3314" y2="419.9205">
					<stop  offset="0" style="stop-color:#004CAC"/>
					<stop  offset="1" style="stop-color:#0051FE"/>
				</linearGradient>
				<path fill="url(#SVGID_25_)" d="M196.044,410.87c-4.894,4.86-4.917,12.759-0.059,17.65l54.809,55.193
					c4.864,4.898,12.761,4.928,17.655,0.068l55.193-54.809c4.894-4.86,4.926-12.763,0.062-17.661l-54.809-55.193
					c-4.858-4.892-12.763-4.917-17.657-0.057L196.044,410.87z"/>
			</g>
			<g opacity="0.64">
				<linearGradient id="SVGID_26_" gradientUnits="userSpaceOnUse" x1="722.7988" y1="954.0828" x2="857.7712" y2="954.0828">
					<stop  offset="0" style="stop-color:#00FFFF"/>
					<stop  offset="1" style="stop-color:#009FFF"/>
				</linearGradient>
				<path fill="url(#SVGID_26_)" d="M726.485,945.033c-4.894,4.86-4.917,12.759-0.057,17.652l54.809,55.193
					c4.86,4.894,12.756,4.924,17.65,0.064l55.193-54.809c4.894-4.86,4.926-12.763,0.066-17.657l-54.809-55.194
					c-4.86-4.894-12.765-4.919-17.659-0.06L726.485,945.033z"/>
			</g>
			<g opacity="0.64">
				
					<radialGradient id="SVGID_27_" cx="375.8787" cy="-153.3062" r="227.2118" fx="499.4613" fy="-174.1948" gradientTransform="matrix(0.7046 0.7096 -0.7096 0.7046 518.0879 -108.3334)" gradientUnits="userSpaceOnUse">
					<stop  offset="0" style="stop-color:#CEC2DF"/>
					<stop  offset="0.3375" style="stop-color:#ADB6D9"/>
					<stop  offset="0.7698" style="stop-color:#89A9D2"/>
					<stop  offset="1" style="stop-color:#7BA4CF"/>
				</radialGradient>
				<path fill="url(#SVGID_27_)" d="M695.472,188.425c-9.515,9.449-24.883,9.39-34.328-0.121L554.573,80.985
					c-9.448-9.514-9.396-24.879,0.119-34.328L662.013-59.917c9.511-9.444,24.879-9.392,34.327,0.122L802.912,47.524
					c9.445,9.512,9.393,24.883-0.118,34.327L695.472,188.425z"/>
			</g>
			<g opacity="0.64">
				
					<radialGradient id="SVGID_28_" cx="525.1763" cy="-274.307" r="227.2118" fx="648.7589" fy="-295.1955" gradientTransform="matrix(0.7046 0.7096 -0.7096 0.7046 518.0879 -108.3334)" gradientUnits="userSpaceOnUse">
					<stop  offset="0" style="stop-color:#CEC2DF"/>
					<stop  offset="0.3375" style="stop-color:#ADB6D9"/>
					<stop  offset="0.7698" style="stop-color:#89A9D2"/>
					<stop  offset="1" style="stop-color:#7BA4CF"/>
				</radialGradient>
				<path fill="url(#SVGID_28_)" d="M886.531,209.102c-9.515,9.449-24.883,9.39-34.328-0.121L745.632,101.661
					c-9.448-9.514-9.396-24.879,0.119-34.328L853.072-39.241c9.511-9.444,24.879-9.392,34.327,0.122L993.97,68.201
					c9.445,9.512,9.393,24.883-0.118,34.327L886.531,209.102z"/>
			</g>
			<g opacity="0.4">
				<linearGradient id="SVGID_29_" gradientUnits="userSpaceOnUse" x1="204.0697" y1="562.8743" x2="466.5077" y2="562.8743">
					<stop  offset="0" style="stop-color:#004CAC"/>
					<stop  offset="1" style="stop-color:#0051FE"/>
				</linearGradient>
				<path fill="url(#SVGID_29_)" d="M352.02,687.045c-9.513,9.447-24.88,9.389-34.327-0.124L211.122,579.602
					c-9.447-9.513-9.397-24.881,0.115-34.327l107.319-106.572c9.513-9.447,24.88-9.388,34.327,0.125l106.572,107.319
					c9.447,9.513,9.397,24.88-0.116,34.327L352.02,687.045z"/>
			</g>
			<g>
				<path fill="#4FBFDE" d="M67.713-46.915c-14.048,13.95-14.131,36.647-0.182,50.694l157.394,158.498
					c13.95,14.048,36.649,14.125,50.697,0.175L434.117,5.06c14.051-13.953,14.128-36.646,0.177-50.694L276.901-204.132
					c-13.949-14.047-36.641-14.128-50.692-0.175L67.713-46.915z"/>
			</g>
			<g opacity="0.4">
				<linearGradient id="SVGID_30_" gradientUnits="userSpaceOnUse" x1="375.0036" y1="299.1834" x2="762.5876" y2="299.1834">
					<stop  offset="0" style="stop-color:#004CAC"/>
					<stop  offset="1" style="stop-color:#0051FE"/>
				</linearGradient>
				<path fill="url(#SVGID_30_)" d="M385.593,273.195c-14.048,13.95-14.13,36.648-0.18,50.697l157.39,158.495
					c13.952,14.05,36.651,14.127,50.699,0.177l158.496-157.391c14.051-13.953,14.128-36.646,0.175-50.697l-157.39-158.495
					c-13.95-14.048-36.643-14.131-50.695-0.177L385.593,273.195z"/>
			</g>
			<g opacity="0.64">
				<linearGradient id="SVGID_31_" gradientUnits="userSpaceOnUse" x1="-47.477" y1="379.8455" x2="340.1071" y2="379.8455">
					<stop  offset="0" style="stop-color:#00FF87"/>
					<stop  offset="1" style="stop-color:#00917E"/>
				</linearGradient>
				<path fill="url(#SVGID_31_)" d="M-36.887,353.857c-14.048,13.95-14.132,36.646-0.182,50.694L120.327,563.05
					c13.95,14.048,36.648,14.125,50.697,0.175l158.495-157.39c14.048-13.95,14.13-36.648,0.179-50.696L172.302,196.639
					c-13.95-14.048-36.646-14.123-50.694-0.173L-36.887,353.857z"/>
			</g>
			<g opacity="0.64">
				<path fill="#206CB6" d="M-75.202-47.158c-9.513,9.447-9.562,24.814-0.117,34.326L31.254,94.489
					c9.447,9.513,24.814,9.571,34.327,0.124L172.903-11.962c9.511-9.444,9.565-24.816,0.118-34.329L66.449-153.611
					c-9.445-9.512-24.818-9.565-34.328-0.121L-75.202-47.158z"/>
			</g>
			<g opacity="0.4">
				<linearGradient id="SVGID_32_" gradientUnits="userSpaceOnUse" x1="444.8002" y1="501.309" x2="707.2413" y2="501.309">
					<stop  offset="0" style="stop-color:#00FFFF"/>
					<stop  offset="1" style="stop-color:#009FFF"/>
				</linearGradient>
				<path fill="url(#SVGID_32_)" d="M451.968,483.711c-9.513,9.447-9.562,24.814-0.116,34.327l106.569,107.317
					c9.449,9.515,24.816,9.573,34.329,0.127l107.323-106.575c9.511-9.444,9.565-24.816,0.116-34.332L593.62,377.258
					c-9.446-9.513-24.819-9.566-34.329-0.122L451.968,483.711z"/>
			</g>
			<g opacity="0.64">
				<linearGradient id="SVGID_33_" gradientUnits="userSpaceOnUse" x1="329.7122" y1="19.5621" x2="592.1497" y2="19.5621">
					<stop  offset="0" style="stop-color:#00FF87"/>
					<stop  offset="1" style="stop-color:#00917E"/>
				</linearGradient>
				<path fill="url(#SVGID_33_)" d="M336.881,1.959c-9.514,9.448-9.564,24.816-0.116,34.331l106.574,107.321
					c9.444,9.511,24.813,9.568,34.327,0.12L584.98,37.165c9.514-9.448,9.564-24.816,0.12-34.327L478.526-104.483
					c-9.449-9.515-24.817-9.572-34.331-0.124L336.881,1.959z"/>
			</g>
			<g opacity="0.46">
				
					<radialGradient id="SVGID_34_" cx="-836.6931" cy="472.7045" r="116.8532" fx="-773.1356" fy="461.9617" gradientTransform="matrix(-0.7046 -0.7096 -0.7096 0.7046 -287.3888 -919.4612)" gradientUnits="userSpaceOnUse">
					<stop  offset="0" style="stop-color:#CEECFB"/>
					<stop  offset="0.3392" style="stop-color:#84D6F2"/>
					<stop  offset="0.643" style="stop-color:#49C5EA"/>
					<stop  offset="0.8657" style="stop-color:#24BAE6"/>
					<stop  offset="0.9836" style="stop-color:#16B6E4"/>
				</radialGradient>
				<path fill="url(#SVGID_34_)" d="M-104.963,107.752c-4.894,4.86-4.914,12.762-0.056,17.653l54.809,55.194
					c4.86,4.894,12.756,4.924,17.65,0.064l55.193-54.809c4.894-4.86,4.926-12.763,0.066-17.657l-54.809-55.194
					c-4.858-4.892-12.766-4.92-17.66-0.061L-104.963,107.752z"/>
			</g>
			<g opacity="0.4">
				
					<radialGradient id="SVGID_35_" cx="-1589.4878" cy="472.7045" r="116.8532" fx="-1525.9303" fy="461.9617" gradientTransform="matrix(-0.7046 -0.7096 -0.7096 0.7046 -287.3888 -919.4612)" gradientUnits="userSpaceOnUse">
					<stop  offset="0" style="stop-color:#CEECFB"/>
					<stop  offset="0.3392" style="stop-color:#84D6F2"/>
					<stop  offset="0.643" style="stop-color:#49C5EA"/>
					<stop  offset="0.8657" style="stop-color:#24BAE6"/>
					<stop  offset="0.9836" style="stop-color:#16B6E4"/>
				</radialGradient>
				<path fill="url(#SVGID_35_)" d="M425.48,641.916c-4.894,4.86-4.917,12.758-0.057,17.652l54.811,55.196
					c4.86,4.894,12.756,4.924,17.65,0.064l55.193-54.809c4.894-4.86,4.926-12.763,0.066-17.657l-54.811-55.196
					c-4.86-4.894-12.765-4.919-17.659-0.06L425.48,641.916z"/>
			</g>
			<g opacity="0.64">
				<linearGradient id="SVGID_36_" gradientUnits="userSpaceOnUse" x1="-88.1818" y1="570.6926" x2="299.4075" y2="570.6926">
					<stop  offset="0" style="stop-color:#004CAC"/>
					<stop  offset="1" style="stop-color:#0051FE"/>
				</linearGradient>
				<path fill="url(#SVGID_36_)" d="M130.318,754.074c-14.048,13.95-36.744,13.875-50.697-0.175L-77.771,595.403
					c-13.95-14.048-13.871-36.749,0.177-50.699L80.905,387.309c14.048-13.95,36.749-13.871,50.699,0.177l157.392,158.497
					c13.953,14.05,13.869,36.746-0.18,50.697L130.318,754.074z"/>
			</g>
			<g opacity="0.64">
				<linearGradient id="SVGID_37_" gradientUnits="userSpaceOnUse" x1="-129.1495" y1="152.2661" x2="133.2917" y2="152.2661">
					<stop  offset="0" style="stop-color:#00FF87"/>
					<stop  offset="1" style="stop-color:#00917E"/>
				</linearGradient>
				<path fill="url(#SVGID_37_)" d="M18.802,276.437c-9.515,9.449-24.883,9.39-34.327-0.12l-106.574-107.322
					c-9.447-9.513-9.396-24.879,0.119-34.328L-14.658,28.094c9.511-9.444,24.88-9.391,34.327,0.122l106.574,107.321
					c9.444,9.511,9.392,24.881-0.119,34.326L18.802,276.437z"/>
			</g>
			<g opacity="0.4">
				<linearGradient id="SVGID_38_" gradientUnits="userSpaceOnUse" x1="505.0752" y1="865.9919" x2="767.5137" y2="865.9919">
					<stop  offset="0" style="stop-color:#00FFFF"/>
					<stop  offset="1" style="stop-color:#009FFF"/>
				</linearGradient>
				<path fill="url(#SVGID_38_)" d="M653.026,990.163c-9.513,9.447-24.878,9.391-34.329-0.127l-106.57-107.317
					c-9.447-9.513-9.397-24.88,0.116-34.327L619.563,741.82c9.513-9.447,24.88-9.389,34.327,0.124l106.57,107.317
					c9.451,9.517,9.399,24.883-0.114,34.329L653.026,990.163z"/>
			</g>
			<g opacity="0.4">
				<linearGradient id="SVGID_39_" gradientUnits="userSpaceOnUse" x1="247.7658" y1="680.0565" x2="635.3489" y2="680.0565">
					<stop  offset="0" style="stop-color:#00FFFF"/>
					<stop  offset="1" style="stop-color:#009FFF"/>
				</linearGradient>
				<path fill="url(#SVGID_39_)" d="M258.353,654.068c-14.046,13.948-14.128,36.646-0.175,50.697l157.39,158.495
					c13.95,14.048,36.651,14.127,50.697,0.179l158.497-157.393c14.048-13.95,14.125-36.648,0.175-50.696l-157.39-158.495
					c-13.953-14.05-36.648-14.13-50.697-0.179L258.353,654.068z"/>
			</g>
			<g opacity="0.64">
				<linearGradient id="SVGID_40_" gradientUnits="userSpaceOnUse" x1="218.6351" y1="273.5564" x2="481.0749" y2="273.5564">
					<stop  offset="0" style="stop-color:#004CAC"/>
					<stop  offset="1" style="stop-color:#0051FE"/>
				</linearGradient>
				<path fill="url(#SVGID_40_)" d="M225.803,255.96c-9.513,9.447-9.562,24.814-0.118,34.325l106.574,107.322
					c9.445,9.511,24.812,9.569,34.325,0.122l107.323-106.575c9.511-9.444,9.565-24.816,0.12-34.327L367.453,149.505
					c-9.444-9.511-24.816-9.564-34.327-0.12L225.803,255.96z"/>
			</g>
			<g opacity="0.4">
				<linearGradient id="SVGID_41_" gradientUnits="userSpaceOnUse" x1="745.8053" y1="804.4252" x2="1008.2451" y2="804.4252">
					<stop  offset="0" style="stop-color:#00FFFF"/>
					<stop  offset="1" style="stop-color:#009FFF"/>
				</linearGradient>
				<path fill="url(#SVGID_41_)" d="M752.973,786.828c-9.513,9.447-9.562,24.814-0.118,34.325l106.574,107.322
					c9.444,9.511,24.812,9.569,34.325,0.122l107.323-106.575c9.511-9.444,9.564-24.817,0.12-34.327L894.623,680.374
					c-9.444-9.511-24.816-9.564-34.327-0.12L752.973,786.828z"/>
			</g>
			<g opacity="0.64">
				<linearGradient id="SVGID_42_" gradientUnits="userSpaceOnUse" x1="36.9667" y1="186.0535" x2="299.4075" y2="186.0535">
					<stop  offset="0" style="stop-color:#00FF87"/>
					<stop  offset="1" style="stop-color:#00917E"/>
				</linearGradient>
				<path fill="url(#SVGID_42_)" d="M44.135,168.455c-9.513,9.446-9.563,24.815-0.116,34.328l106.574,107.322
					c9.444,9.511,24.813,9.568,34.326,0.121l107.319-106.572c9.513-9.447,9.566-24.819,0.122-34.329L185.786,62.003
					c-9.447-9.513-24.818-9.567-34.331-0.12L44.135,168.455z"/>
			</g>
			<g opacity="0.4">
				<linearGradient id="SVGID_43_" gradientUnits="userSpaceOnUse" x1="540.2913" y1="534.6307" x2="802.7323" y2="534.6307">
					<stop  offset="0" style="stop-color:#00FFFF"/>
					<stop  offset="1" style="stop-color:#009FFF"/>
				</linearGradient>
				<path fill="url(#SVGID_43_)" d="M547.46,517.031c-9.514,9.448-9.563,24.815-0.117,34.328l106.574,107.322
					c9.444,9.511,24.812,9.569,34.326,0.121L795.56,552.233c9.515-9.449,9.569-24.82,0.124-34.331L689.111,410.58
					c-9.447-9.513-24.818-9.567-34.333-0.118L547.46,517.031z"/>
			</g>
			<g opacity="0.4">
				<linearGradient id="SVGID_44_" gradientUnits="userSpaceOnUse" x1="630.7194" y1="322.6791" x2="893.1528" y2="322.6791">
					<stop  offset="0" style="stop-color:#004CAC"/>
					<stop  offset="1" style="stop-color:#0051FE"/>
				</linearGradient>
				<path fill="url(#SVGID_44_)" d="M637.889,305.078c-9.514,9.448-9.564,24.816-0.118,34.329l106.572,107.319
					c9.444,9.511,24.813,9.568,34.327,0.12L885.983,340.28c9.514-9.448,9.565-24.816,0.12-34.327L779.532,198.634
					c-9.447-9.513-24.815-9.57-34.329-0.122L637.889,305.078z"/>
			</g>
			<g opacity="0.64">
				<linearGradient id="SVGID_45_" gradientUnits="userSpaceOnUse" x1="292.3547" y1="426.9888" x2="455.4154" y2="426.9888">
					<stop  offset="0" style="stop-color:#004CAC"/>
					<stop  offset="1" style="stop-color:#0051FE"/>
				</linearGradient>
				<path fill="url(#SVGID_45_)" d="M296.81,416.056c-5.913,5.872-5.944,15.417-0.075,21.328l66.213,66.678
					c5.872,5.913,15.417,5.948,21.33,0.077l66.681-66.217c5.912-5.87,5.944-15.417,0.072-21.33l-66.213-66.678
					c-5.869-5.911-15.416-5.945-21.328-0.075L296.81,416.056z"/>
			</g>
			<g opacity="0.64">
				<linearGradient id="SVGID_46_" gradientUnits="userSpaceOnUse" x1="192.3571" y1="419.9205" x2="327.3314" y2="419.9205">
					<stop  offset="0" style="stop-color:#004CAC"/>
					<stop  offset="1" style="stop-color:#0051FE"/>
				</linearGradient>
				<path fill="url(#SVGID_46_)" d="M196.044,410.87c-4.894,4.86-4.917,12.759-0.059,17.65l54.809,55.193
					c4.864,4.898,12.761,4.928,17.655,0.068l55.193-54.809c4.894-4.86,4.926-12.763,0.062-17.661l-54.809-55.193
					c-4.858-4.892-12.763-4.917-17.657-0.057L196.044,410.87z"/>
			</g>
			<g opacity="0.4">
				<linearGradient id="SVGID_47_" gradientUnits="userSpaceOnUse" x1="722.7988" y1="954.0828" x2="857.7712" y2="954.0828">
					<stop  offset="0" style="stop-color:#00FFFF"/>
					<stop  offset="1" style="stop-color:#009FFF"/>
				</linearGradient>
				<path fill="url(#SVGID_47_)" d="M726.485,945.033c-4.894,4.86-4.917,12.759-0.057,17.652l54.809,55.193
					c4.86,4.894,12.756,4.924,17.65,0.064l55.193-54.809c4.894-4.86,4.926-12.763,0.066-17.657l-54.809-55.194
					c-4.86-4.894-12.765-4.919-17.659-0.06L726.485,945.033z"/>
			</g>
		</g>
	</g>
</g>
<g id="Vexels">
	<g>
		<g>
			<path fill="#042847" d="M1457.405,1004.705l-0.971-2.1c-0.477-1.008-1.744-1.477-2.813-1.044c-1.151,0.394-1.667,1.587-1.19,2.56
				l1.09,2.364l8.618,18.703c0.081,0.073,0.161,0.215,0.196,0.287c0,0.036,0.044,0.036,0.044,0.036
				c0.039,0.073,0.12,0.145,0.198,0.219c0,0.071,0.039,0.071,0.039,0.106c0.117,0.074,0.198,0.108,0.273,0.182
				c0.041,0,0.041,0,0.041,0c0.121,0.072,0.279,0.178,0.359,0.215c0.039,0,0.039,0,0.039,0s0.04,0,0.04,0.037
				c0.08,0,0.239,0.037,0.318,0.069c0.036,0,0.078,0,0.078,0c0.117,0.039,0.278,0.039,0.398,0.039c0.117,0,0.237,0,0.397-0.039
				c0.038,0,0.076,0,0.076,0c0.12-0.032,0.197-0.069,0.32-0.069c0.041-0.037,0.041-0.037,0.077-0.037
				c0.121-0.037,0.238-0.143,0.318-0.18c0.08-0.035,0.08-0.035,0.08-0.035c0.078-0.074,0.157-0.108,0.237-0.182
				c0.041-0.035,0.041-0.035,0.079-0.106c0.041-0.073,0.159-0.146,0.197-0.219c0.039,0,0.039,0,0.039-0.036
				c0.08-0.073,0.125-0.214,0.162-0.287l0.369-0.796l-2.35-5.086L1457.405,1004.705z M1541.479,1004.554
				c0.672-0.901,0.516-2.126-0.472-2.741c-0.991-0.685-2.302-0.505-3.052,0.433l-4.518,5.635l2.692,3.29L1541.479,1004.554z
				 M1474.744,1001.561c-1.068-0.433-2.375,0.036-2.853,1.044l-5.739,12.405l2.356,5.093l7.426-15.982
				C1476.37,1003.148,1475.857,1001.955,1474.744,1001.561z M1423.586,993.936c-0.934-0.932-2.172-1.444-3.49-1.444
				c-1.318,0-2.555,0.512-3.485,1.444l-15.969,15.972c-1.921,1.925-1.921,5.049,0,6.97l15.969,15.971
				c0.93,0.932,2.167,1.443,3.485,1.443c1.318,0,2.556-0.511,3.49-1.44l15.966-15.974c0.935-0.935,1.447-2.166,1.447-3.487
				c0-1.312-0.512-2.552-1.447-3.483L1423.586,993.936z M1437.075,1014.825l-15.545,15.545c-0.768,0.764-2.1,0.764-2.861,0
				l-15.546-15.545c-0.79-0.791-0.79-2.075-0.004-2.864l15.549-15.546c0.012-0.014,0.027-0.026,0.04-0.035v12.882
				c-0.632,0.213-1.215,0.551-1.702,1.04c-0.824,0.824-1.279,1.922-1.279,3.088c0,1.169,0.455,2.269,1.279,3.089
				c0.824,0.829,1.924,1.284,3.088,1.284c1.169,0,2.268-0.452,3.094-1.284c1.702-1.7,1.702-4.473,0-6.181
				c-0.486-0.486-1.07-0.823-1.704-1.036V996.38c0.014,0.009,0.032,0.021,0.045,0.035l15.545,15.546
				c0.382,0.382,0.589,0.89,0.589,1.429C1437.663,1013.93,1437.457,1014.435,1437.075,1014.825z M1533.953,1013.86l-2.659-3.318
				l-6.691-8.296c-0.68-0.938-2.066-1.118-3.018-0.433c-0.992,0.615-1.186,1.84-0.514,2.741l7.529,9.306l-7.529,9.379
				c-0.672,0.865-0.478,2.13,0.514,2.741c0.356,0.253,0.794,0.398,1.268,0.398c0.675,0,1.307-0.325,1.75-0.833l6.691-8.33
				l7.151,8.948c0.413,0.514,1.066,0.779,1.676,0.779c0.451,0,0.98-0.207,1.359-0.511c0.9-0.714,0.969-2.011,0.251-2.905
				L1533.953,1013.86z M1498.903,1001.169c-6.408,0-11.627,5.669-11.627,12.632c0,6.91,5.219,12.536,11.627,12.536
				c3.936,0,7.565-2.148,9.703-5.75c0.515-0.929,0.255-2.086-0.652-2.776c-0.293-0.19-0.639-0.289-0.99-0.289
				c-0.686,0-1.295,0.367-1.627,0.969c-1.343,2.366-3.808,3.832-6.434,3.832c-3.888,0-7.112-3.094-7.688-7.28h17.296
				c1.082,0,1.925-0.841,1.925-1.911l-0.001-0.256C1509.944,1006.204,1504.985,1001.169,1498.903,1001.169z M1491.497,1011.076
				c1.048-3.548,3.958-5.891,7.406-5.891c3.38,0,6.305,2.395,7.286,5.891H1491.497z M1597.993,1022.26
				c-0.039-0.001-2.978-0.001-3.022-0.001c-1.12,0-2.423-0.644-2.423-2.454v-20.088c0-1.182-0.965-2.139-2.149-2.139
				c-1.144,0-2.142,0.999-2.142,2.139v20.088c0,3.971,2.635,6.534,6.714,6.534c0.052,0,3,0,3.049-0.002
				c1.058-0.076,1.891-0.963,1.891-2.038C1599.912,1023.218,1599.061,1022.322,1597.993,1022.26z M1630.79,1015.63
				c-0.912-1.34-2.339-2.275-3.964-2.994c-1.584-0.688-3.447-1.155-5.468-1.515h-0.081c-2.138-0.362-3.921-0.943-4.952-1.592
				c-0.515-0.319-0.874-0.646-1.073-0.937c-0.196-0.285-0.276-0.578-0.276-1.005c0-0.761,0.435-1.554,1.51-2.276
				c1.067-0.72,2.653-1.227,4.435-1.227c2.418,0,4.36,1.081,6.382,2.307c0.951,0.576,2.219,0.323,2.811-0.54
				c0.636-0.83,0.36-1.985-0.552-2.563c-2.022-1.187-4.838-2.885-8.641-2.885c-2.577,0-4.991,0.686-6.856,1.911
				c-1.826,1.232-3.172,3.103-3.172,5.271c0,1.079,0.317,2.091,0.912,2.954c0.871,1.264,2.18,2.166,3.682,2.814
				c1.506,0.648,3.256,1.084,5.114,1.407h0.084c2.336,0.398,4.279,1.011,5.428,1.695c0.594,0.362,0.951,0.722,1.19,1.082
				c0.237,0.363,0.355,0.684,0.355,1.153c0,0.903-0.513,1.805-1.704,2.598c-1.187,0.794-2.971,1.336-4.952,1.336
				c-2.815,0.035-5.828-1.48-7.572-2.777c-0.872-0.653-2.18-0.543-2.892,0.248c-0.675,0.796-0.555,1.986,0.318,2.633
				c2.261,1.628,5.863,3.576,10.146,3.608c2.814,0,5.39-0.755,7.334-2.053c1.979-1.302,3.406-3.282,3.406-5.593
				C1631.741,1017.576,1631.386,1016.496,1630.79,1015.63z M1565.088,1001.169c-6.41,0-11.625,5.669-11.625,12.632
				c0,6.91,5.215,12.536,11.625,12.536c3.942,0,7.563-2.148,9.705-5.75c0.515-0.929,0.253-2.086-0.652-2.776
				c-0.295-0.19-0.638-0.289-0.992-0.289c-0.685,0-1.294,0.367-1.626,0.969c-1.342,2.366-3.808,3.832-6.436,3.832
				c-3.887,0-7.112-3.094-7.69-7.28h17.299c1.08,0,1.927-0.841,1.927-1.911l-0.001-0.256
				C1576.131,1006.204,1571.172,1001.169,1565.088,1001.169z M1557.68,1011.076c1.051-3.548,3.962-5.891,7.408-5.891
				c3.386,0,6.305,2.395,7.286,5.891H1557.68z"/>
		</g>
		<g>
			<path fill="#042847" d="M1281.913,1015.067c0,0.75,0.008,1.43,0.023,2.04c0.016,0.61,0.08,1.209,0.197,1.797h-1.191l-0.439-1.565
				h-0.089c-0.293,0.515-0.72,0.941-1.278,1.28c-0.559,0.336-1.212,0.506-1.962,0.506c-1.47,0-2.56-0.463-3.272-1.388
				c-0.712-0.927-1.07-2.374-1.07-4.344c0-1.881,0.445-3.308,1.334-4.287c0.889-0.975,2.113-1.466,3.67-1.466
				c0.544,0,0.973,0.03,1.289,0.088c0.317,0.06,0.658,0.155,1.026,0.287v-4.586h1.763V1015.067z M1277.461,1017.581
				c0.749,0,1.345-0.196,1.786-0.585c0.438-0.388,0.74-0.979,0.902-1.774v-5.467c-0.266-0.205-0.565-0.352-0.902-0.44
				c-0.34-0.089-0.788-0.132-1.345-0.132c-1.014,0-1.808,0.334-2.381,1.001c-0.572,0.671-0.859,1.739-0.859,3.208
				c0,0.604,0.047,1.161,0.143,1.676c0.094,0.516,0.252,0.957,0.472,1.324c0.222,0.369,0.512,0.659,0.872,0.872
				C1276.509,1017.474,1276.948,1017.581,1277.461,1017.581z"/>
			<path fill="#042847" d="M1293.355,1017.977c-0.441,0.352-0.997,0.633-1.665,0.838c-0.67,0.205-1.377,0.308-2.126,0.308
				c-0.839,0-1.566-0.136-2.184-0.408c-0.617-0.272-1.123-0.661-1.52-1.169c-0.398-0.506-0.692-1.113-0.882-1.819
				c-0.191-0.704-0.287-1.498-0.287-2.38c0-1.882,0.418-3.315,1.257-4.298c0.836-0.985,2.034-1.478,3.592-1.478
				c0.501,0,1,0.056,1.5,0.166c0.499,0.11,0.948,0.319,1.344,0.628c0.397,0.309,0.719,0.747,0.971,1.313
				c0.25,0.565,0.374,1.308,0.374,2.236c0,0.485-0.044,1.021-0.133,1.61h-7.075c0,0.646,0.065,1.219,0.198,1.718
				c0.131,0.501,0.338,0.923,0.617,1.267c0.28,0.346,0.643,0.612,1.091,0.794c0.448,0.184,0.996,0.276,1.642,0.276
				c0.501,0,0.999-0.09,1.499-0.265c0.5-0.177,0.874-0.383,1.125-0.617L1293.355,1017.977z M1289.563,1009.116
				c-0.868,0-1.563,0.227-2.085,0.683c-0.521,0.457-0.833,1.235-0.935,2.337h5.468c0-1.117-0.214-1.899-0.64-2.347
				C1290.943,1009.34,1290.34,1009.116,1289.563,1009.116z"/>
			<path fill="#042847" d="M1301.356,1015.863c0-0.444-0.134-0.788-0.397-1.037c-0.265-0.25-0.592-0.46-0.981-0.627
				c-0.391-0.17-0.817-0.332-1.279-0.487c-0.461-0.154-0.888-0.352-1.278-0.594c-0.391-0.244-0.717-0.555-0.981-0.937
				c-0.264-0.384-0.398-0.898-0.398-1.545c0-1.059,0.301-1.832,0.904-2.324c0.603-0.491,1.441-0.739,2.513-0.739
				c0.795,0,1.458,0.07,1.996,0.21c0.535,0.14,1.002,0.306,1.4,0.498l-0.42,1.454c-0.339-0.162-0.747-0.306-1.224-0.43
				c-0.477-0.126-0.987-0.188-1.531-0.188c-0.646,0-1.122,0.109-1.421,0.331c-0.302,0.22-0.453,0.603-0.453,1.145
				c0,0.383,0.134,0.68,0.399,0.894c0.262,0.213,0.589,0.405,0.98,0.573c0.39,0.168,0.816,0.334,1.279,0.496
				c0.463,0.161,0.889,0.373,1.277,0.64c0.391,0.264,0.717,0.599,0.982,1.004c0.263,0.403,0.397,0.934,0.397,1.597
				c0,0.471-0.077,0.91-0.231,1.322c-0.154,0.412-0.393,0.765-0.716,1.057c-0.325,0.295-0.726,0.527-1.202,0.695
				c-0.479,0.169-1.04,0.253-1.686,0.253c-0.838,0-1.552-0.081-2.138-0.243c-0.589-0.162-1.082-0.352-1.476-0.572l0.527-1.5
				c0.336,0.191,0.779,0.369,1.323,0.529c0.544,0.162,1.096,0.243,1.653,0.243c0.632,0,1.155-0.126,1.566-0.375
				C1301.15,1016.955,1301.356,1016.507,1301.356,1015.863z"/>
			<path fill="#042847" d="M1305.786,1004.487c0-0.338,0.113-0.628,0.342-0.871c0.227-0.244,0.517-0.363,0.87-0.363
				c0.352,0,0.655,0.12,0.903,0.363c0.25,0.243,0.375,0.533,0.375,0.871c0,0.337-0.125,0.617-0.375,0.837
				c-0.248,0.221-0.551,0.331-0.903,0.331c-0.353,0-0.643-0.11-0.87-0.331C1305.899,1005.104,1305.786,1004.824,1305.786,1004.487z
				 M1306.159,1007.836h1.765v11.022h-1.765V1007.836z"/>
			<path fill="#042847" d="M1320.136,1019.367c0,1.424-0.378,2.476-1.136,3.151c-0.757,0.676-1.878,1.014-3.361,1.014
				c-0.882,0-1.59-0.055-2.128-0.167c-0.536-0.109-0.996-0.252-1.377-0.429l0.461-1.499c0.339,0.133,0.714,0.258,1.127,0.377
				c0.409,0.117,0.947,0.175,1.608,0.175c0.618,0,1.122-0.055,1.51-0.165c0.389-0.109,0.701-0.294,0.936-0.55
				c0.235-0.259,0.397-0.588,0.486-0.992c0.087-0.405,0.133-0.886,0.133-1.445v-1.057h-0.088c-0.296,0.425-0.67,0.754-1.126,0.981
				c-0.454,0.228-1.051,0.341-1.784,0.341c-1.487,0-2.576-0.462-3.274-1.387c-0.699-0.927-1.047-2.366-1.047-4.322
				c0-1.881,0.448-3.308,1.344-4.287c0.898-0.975,2.218-1.466,3.968-1.466c0.839,0,1.556,0.066,2.149,0.197
				c0.596,0.135,1.128,0.287,1.599,0.465V1019.367z M1315.704,1017.558c0.75,0,1.337-0.186,1.765-0.563
				c0.425-0.373,0.728-0.958,0.903-1.751v-5.645c-0.588-0.278-1.337-0.416-2.247-0.416c-1.001,0-1.787,0.338-2.359,1.013
				c-0.574,0.675-0.86,1.735-0.86,3.174c0,0.618,0.051,1.183,0.155,1.697c0.102,0.516,0.264,0.957,0.486,1.324
				c0.219,0.369,0.506,0.653,0.859,0.859C1314.757,1017.455,1315.19,1017.558,1315.704,1017.558z"/>
			<path fill="#042847" d="M1330.606,1018.858v-6.282c0-1.146-0.166-2.009-0.495-2.589c-0.332-0.581-0.936-0.871-1.821-0.871
				c-0.779,0-1.42,0.21-1.928,0.63c-0.508,0.417-0.864,0.941-1.07,1.573v7.539h-1.763v-11.022h1.235l0.33,1.346h0.088
				c0.352-0.472,0.828-0.856,1.422-1.158c0.595-0.301,1.304-0.453,2.127-0.453c0.603,0,1.131,0.07,1.587,0.21
				c0.456,0.14,0.833,0.385,1.135,0.738c0.301,0.353,0.529,0.828,0.685,1.422c0.153,0.596,0.23,1.349,0.23,2.26v6.656H1330.606z"/>
			<path fill="#042847" d="M1343.634,1017.977c-0.441,0.352-0.997,0.633-1.664,0.838c-0.669,0.205-1.378,0.308-2.126,0.308
				c-0.838,0-1.567-0.136-2.183-0.408c-0.619-0.272-1.125-0.661-1.523-1.169c-0.395-0.506-0.692-1.113-0.881-1.819
				c-0.191-0.704-0.286-1.498-0.286-2.38c0-1.882,0.418-3.315,1.258-4.298c0.835-0.985,2.034-1.478,3.59-1.478
				c0.5,0,0.999,0.056,1.499,0.166c0.5,0.11,0.95,0.319,1.347,0.628c0.395,0.309,0.718,0.747,0.969,1.313
				c0.249,0.565,0.375,1.308,0.375,2.236c0,0.485-0.046,1.021-0.133,1.61h-7.077c0,0.646,0.068,1.219,0.2,1.718
				c0.131,0.501,0.336,0.923,0.616,1.267c0.28,0.346,0.644,0.612,1.091,0.794c0.449,0.184,0.996,0.276,1.642,0.276
				c0.5,0,0.999-0.09,1.499-0.265c0.5-0.177,0.875-0.383,1.125-0.617L1343.634,1017.977z M1339.844,1009.116
				c-0.868,0-1.564,0.227-2.085,0.683c-0.522,0.457-0.834,1.235-0.936,2.337h5.466c0-1.117-0.213-1.899-0.638-2.347
				C1341.224,1009.34,1340.621,1009.116,1339.844,1009.116z"/>
			<path fill="#042847" d="M1355.25,1015.067c0,0.75,0.008,1.43,0.023,2.04c0.014,0.61,0.081,1.209,0.198,1.797h-1.191l-0.441-1.565
				h-0.088c-0.293,0.515-0.72,0.941-1.277,1.28c-0.559,0.336-1.213,0.506-1.964,0.506c-1.468,0-2.559-0.463-3.273-1.388
				c-0.712-0.927-1.068-2.374-1.068-4.344c0-1.881,0.443-3.308,1.334-4.287c0.888-0.975,2.11-1.466,3.668-1.466
				c0.544,0,0.975,0.03,1.291,0.088c0.314,0.06,0.657,0.155,1.025,0.287v-4.586h1.763V1015.067z M1350.797,1017.581
				c0.75,0,1.345-0.196,1.787-0.585c0.44-0.388,0.741-0.979,0.903-1.774v-5.467c-0.266-0.205-0.566-0.352-0.903-0.44
				c-0.338-0.089-0.786-0.132-1.345-0.132c-1.014,0-1.808,0.334-2.38,1.001c-0.574,0.671-0.861,1.739-0.861,3.208
				c0,0.604,0.05,1.161,0.143,1.676c0.096,0.516,0.253,0.957,0.475,1.324c0.218,0.369,0.51,0.659,0.87,0.872
				C1349.846,1017.474,1350.283,1017.581,1350.797,1017.581z"/>
			<path fill="#042847" d="M1364.532,1003.428h1.763v5.487h0.089c0.337-0.424,0.766-0.754,1.289-0.989
				c0.521-0.234,1.09-0.354,1.709-0.354c1.425,0,2.495,0.456,3.207,1.366c0.712,0.912,1.07,2.323,1.07,4.233
				c0,1.925-0.472,3.387-1.412,4.386c-0.941,1-2.263,1.5-3.968,1.5c-0.823,0-1.569-0.088-2.236-0.265
				c-0.67-0.176-1.173-0.368-1.51-0.574V1003.428z M1369.072,1009.116c-0.735,0-1.33,0.205-1.784,0.618
				c-0.458,0.41-0.788,0.991-0.993,1.741v5.555c0.278,0.162,0.618,0.283,1.014,0.363c0.397,0.081,0.808,0.121,1.235,0.121
				c0.998,0,1.796-0.353,2.39-1.057c0.595-0.707,0.893-1.808,0.893-3.306c0-0.575-0.051-1.111-0.154-1.611
				c-0.104-0.499-0.264-0.925-0.485-1.28c-0.22-0.352-0.502-0.63-0.848-0.835C1369.994,1009.219,1369.57,1009.116,1369.072,1009.116
				z"/>
			<path fill="#042847" d="M1379.42,1014.979l0.62,2.116h0.111l0.486-2.138l2.146-7.121h1.763l-3.262,9.899
				c-0.25,0.718-0.496,1.419-0.737,2.093c-0.244,0.675-0.512,1.28-0.805,1.808c-0.294,0.529-0.626,0.95-0.991,1.268
				c-0.368,0.314-0.795,0.473-1.28,0.473c-0.529,0-0.961-0.074-1.3-0.22l0.308-1.521c0.191,0.071,0.375,0.11,0.551,0.11
				c0.41,0,0.808-0.218,1.191-0.651c0.382-0.433,0.696-1.179,0.947-2.238l-4.431-11.022h2.029L1379.42,1014.979z"/>
		</g>
	</g>
</g>
<g id="Layer_3">
</g>
</svg>
