<?xml version="1.0" standalone="yes"?>
<svg xmlns="http://www.w3.org/2000/svg" width="800" height="600">
<path style="fill:#ae7bc4; stroke:none;" d="M0 0L0 106L0.328704 159L8.57562 181L26 224L29 224L28 216L29 215L31 216L30 208L31 207L33 208L34 190L35 189L37 190L36 182L37 181L39 182L38 174L39 173L41 174L44 148L45 147L47 148L46 140L47 139L49 140L52 114L53 113L55 114L54 106L55 105L57 106L56 98L57 97L59 98L62 72L63 71L65 72L64 64L65 63L67 64L70 38L71 37L73 38L72 30L73 29L75 30L74 22L75 21L77 22L78 4L79 3L81 4L81 1L80 0L0 0z"/>
<path style="fill:#5a7ea4; stroke:none;" d="M78 0L79 1L78 0M80 0L81 4L78 4L77 22L74 22L75 30L72 30L73 38L70 38L67 64L64 64L65 72L62 72L59 98L56 98L57 106L54 106L55 114L52 114L49 140L46 140L47 148L44 148L41 174L38 174L39 182L36 182L37 190L34 190L33 208L30 208L31 216L28 216L29 224L26 224C36.3671 250.729 46.9517 277.379 57.6003 304C62.4584 316.145 65.8252 330.045 79 335.637C94.4844 342.21 113.728 329.509 128 323.8C167.952 307.819 208.047 292.182 248 276.2C355.594 233.161 463.4 190.642 571 147.6C604.975 134.01 639.022 120.59 673 107C688.008 100.998 706.015 90.0423 722 88L722 77L723 76L725 77L724 69L725 68L727 69L732 35L733 34L735 35L734 27L735 26L737 27L741 0L80 0z"/>
<path style="fill:#1796d1; stroke:none;" d="M741 0L740 1L737 27L734 27L735 35L732 35L727 69L724 69L725 77L722 77L721 87L779 64.8002L798.972 55.5818L800 40L800 0L741 0z"/>
<path style="fill:#5a7ea4; stroke:none;" d="M742 0L743 1L742 0M79 1L78 3L79 1z"/>
<path style="fill:#1796d1; stroke:none;" d="M739 6L738 10L739 10L739 6z"/>
<path style="fill:#5a7ea4; stroke:none;" d="M76 8L76 13L77 13L76 8z"/>
<path style="fill:#1796d1; stroke:none;" d="M737 14L736 18L737 18L737 14z"/>
<path style="fill:#5a7ea4; stroke:none;" d="M75 17L74 21L75 21L75 17z"/>
<path style="fill:#1796d1; stroke:none;" d="M735 22L734 26L735 26L735 22z"/>
<path style="fill:#5a7ea4; stroke:none;" d="M73 25L72 29L73 29L73 25z"/>
<path style="fill:#1796d1; stroke:none;" d="M732 31L732 34L733 34L732 31z"/>
<path style="fill:#5a7ea4; stroke:none;" d="M70 34L70 37L71 37L70 34z"/>
<path style="fill:#1796d1; stroke:none;" d="M730 39L730 44L731 44L730 39z"/>
<path style="fill:#5a7ea4; stroke:none;" d="M68 42L68 47L69 47L68 42z"/>
<path style="fill:#1796d1; stroke:none;" d="M729 48L728 52L729 52L729 48z"/>
<path style="fill:#5a7ea4; stroke:none;" d="M67 51L66 55L67 55L67 51z"/>
<path style="fill:#1796d1; stroke:none;" d="M727 56L726 60L727 60L727 56z"/>
<path style="fill:#cacee2; stroke:none;" d="M799 56L797 57L797 58L799 56z"/>
<path style="fill:#010101; stroke:none;" d="M799 57C733.515 87.6321 663.43 111.692 596 137.811C485.928 180.447 376.606 225.163 267 269C222.742 286.701 178.309 304.019 134 321.601C119.465 327.369 96.7759 342.227 81 336.612C63.3687 330.337 59.0303 307.575 52.8002 292C41.475 263.688 30.3238 235.313 19 207C12.9723 191.929 5.28134 176.653 1 161L0 161C0 174.846 -2.52392 191.487 0.528549 205C3.36838 217.572 10.021 230.053 14.8002 242C23.7253 264.312 32.4752 286.689 41.3997 309C47.5425 324.357 52.5974 352.051 70 357.895C82.8632 362.215 99.299 351.68 111 347C144.312 333.677 177.688 320.525 211 307.2C342.237 254.703 473.758 202.898 605 150.4C655.977 130.008 707.016 109.778 758 89.3997C772.221 83.7156 807.969 78.3746 799 57z"/>
<path style="fill:#cacee2; stroke:none;" d="M794.667 58.3333L795.333 58.6667L794.667 58.3333z"/>
<path style="fill:#5a7ea4; stroke:none;" d="M65 59L64 63L65 63L65 59z"/>
<path style="fill:#cacee2; stroke:none;" d="M792.667 59.3333L793.333 59.6667L792.667 59.3333M789.667 60.3333L790.333 60.6667L789.667 60.3333M787.667 61.3333L788.333 61.6667L787.667 61.3333M784.667 62.3333L785.333 62.6667L784.667 62.3333M782.667 63.3333L783.333 63.6667L782.667 63.3333M779.667 64.3333L780.333 64.6667L779.667 64.3333z"/>
<path style="fill:#1796d1; stroke:none;" d="M724 65L724 68L725 68L724 65z"/>
<path style="fill:#cacee2; stroke:none;" d="M777.667 65.3333L778.333 65.6667L777.667 65.3333M774.667 66.3333L775.333 66.6667L774.667 66.3333M772.667 67.3333L773.333 67.6667L772.667 67.3333z"/>
<path style="fill:#5a7ea4; stroke:none;" d="M62 68L62 71L63 71L62 68z"/>
<path style="fill:#cacee2; stroke:none;" d="M769.667 68.3333L770.333 68.6667L769.667 68.3333M766.667 69.3333L767.333 69.6667L766.667 69.3333M764.667 70.3333L765.333 70.6667L764.667 70.3333M762 71L763 72L762 71M759.667 72.3333L760.333 72.6667L759.667 72.3333z"/>
<path style="fill:#1796d1; stroke:none;" d="M722 73L722 76L723 76L722 73z"/>
<path style="fill:#5a7ea4; stroke:none;" d="M756 73L757 74L756 73z"/>
<path style="fill:#cacee2; stroke:none;" d="M757 73L758 74L757 73M1 205L0 205C0 224.414 7.6663 240.166 14.8002 258C23.9918 280.978 33.009 304.024 42.1998 327C48.1496 341.874 52.0861 360.207 70 364.319C84.2219 367.584 100.154 357.739 113 352.6C143.983 340.207 174.811 327.289 206 315.424C333.003 267.112 458.835 215.268 585 164.8C639.955 142.818 695.047 121.182 750 99.1998L787 84.3997C793.554 81.78 799.736 81.0571 800 73C778.341 78.1326 756.678 89.5287 736 97.8002C696.688 113.525 657.31 129.076 618 144.8C499.091 192.365 379.861 239.116 261 286.8C215.046 305.235 168.975 323.41 123 341.8C109.346 347.262 84.6367 363.154 70 357.532C54.9475 351.749 51.216 332.539 45.8002 319C30.9096 281.775 11.5527 243.661 1 205M754.667 74.3333L755.333 74.6667L754.667 74.3333z"/>
<path style="fill:#5a7ea4; stroke:none;" d="M751 75L752 76L751 75z"/>
<path style="fill:#cacee2; stroke:none;" d="M752 75L753 76L752 75z"/>
<path style="fill:#5a7ea4; stroke:none;" d="M60 76L60 81L61 81L60 76z"/>
<path style="fill:#cacee2; stroke:none;" d="M749.667 76.3333L750.333 76.6667L749.667 76.3333M746.667 77.3333L747.333 77.6667L746.667 77.3333M744.667 78.3333L745.333 78.6667L744.667 78.3333z"/>
<path style="fill:#5a7ea4; stroke:none;" d="M741 79L742 80L741 79z"/>
<path style="fill:#cacee2; stroke:none;" d="M742 79L743 80L742 79z"/>
<path style="fill:#010101; stroke:none;" d="M799 79C776.562 90.826 750.67 98.6426 727 107.811C688.199 122.84 649.634 138.548 611 154C491.808 201.67 372.982 250.783 253 296.424C209.086 313.13 165.625 331.15 122 348.6C107.317 354.474 85.035 368.792 69 363.779C52.5876 358.648 48.6963 342.243 43 328C29.0267 293.062 10.9041 257.284 1 221L0 221C0 234.231 -2.38961 250.085 0.528549 263C6.76449 290.599 22.2839 318.71 32.8002 345C38.3157 358.789 42.2356 381.6 58 386.895C71.4308 391.406 88.7952 380.282 101 375.4C135.645 361.541 170.354 347.857 205 334C340.886 279.653 477.115 226.156 613 171.8C662.311 152.075 711.688 132.526 761 112.8C776.381 106.648 808.657 102.013 799 79z"/>
<path style="fill:#cacee2; stroke:none;" d="M739.667 80.3333L740.333 80.6667L739.667 80.3333M736.667 81.3333L737.333 81.6667L736.667 81.3333z"/>
<path style="fill:#1796d1; stroke:none;" d="M721 82L720 86L721 86L721 82z"/>
<path style="fill:#cacee2; stroke:none;" d="M734.667 82.3333L735.333 82.6667L734.667 82.3333M731.667 83.3333L732.333 83.6667L731.667 83.3333z"/>
<path style="fill:#5a7ea4; stroke:none;" d="M58 84L58 89L59 89L58 84z"/>
<path style="fill:#cacee2; stroke:none;" d="M729.667 84.3333L730.333 84.6667L729.667 84.3333M726.667 85.3333L727.333 85.6667L726.667 85.3333z"/>
<path style="fill:#5a7ea4; stroke:none;" d="M723 86L724 87L723 86z"/>
<path style="fill:#cacee2; stroke:none;" d="M724.667 86.3333L725.333 86.6667L724.667 86.3333z"/>
<path style="fill:#1796d1; stroke:none;" d="M720 87L721 88L720 87z"/>
<path style="fill:#cacee2; stroke:none;" d="M722 87L723 88L722 87M719.667 88.3333L720.333 88.6667L719.667 88.3333M716.667 89.3333L717.333 89.6667L716.667 89.3333M714.667 90.3333L715.333 90.6667L714.667 90.3333M711.667 91.3333L712.333 91.6667L711.667 91.3333M709.667 92.3333L710.333 92.6667L709.667 92.3333z"/>
<path style="fill:#5a7ea4; stroke:none;" d="M57 93L56 97L57 97L57 93z"/>
<path style="fill:#cacee2; stroke:none;" d="M706.667 93.3333L707.333 93.6667L706.667 93.3333M704.667 94.3333L705.333 94.6667L704.667 94.3333M701.667 95.3333L702.333 95.6667L701.667 95.3333M699.667 96.3333L700.333 96.6667L699.667 96.3333M696.667 97.3333L697.333 97.6667L696.667 97.3333M799 97L800 98L799 97M694.667 98.3333L695.333 98.6667L694.667 98.3333M797 98L798 99L797 98z"/>
<path style="fill:#ae7bc4; stroke:none;" d="M1 264L0 264C0 296.961 21.4365 332.567 33.6003 363C39.1124 376.791 43.4218 390.546 60 393.535C75.2664 396.288 93.1668 384.933 107 379.4C141.309 365.676 175.689 352.125 210 338.4C338.549 286.978 467.447 236.415 596 185C647.956 164.22 700.046 143.779 752 123L788 108.6C794.069 106.172 799.755 105.369 800 98C778.952 102.988 758.081 113.969 738 122C699.02 137.59 659.977 153.009 621 168.6C498.467 217.615 376.062 267.143 253 314.811C206.505 332.821 160.293 351.682 114 370.2C99.3818 376.047 74.9291 391.815 59 387.211C45.6285 383.346 41.9558 368.399 37.3997 357C25.269 326.65 9.61758 295.507 1 264z"/>
<path style="fill:#cacee2; stroke:none;" d="M691.667 99.3333L692.333 99.6667L691.667 99.3333M794 99L795 100L794 99M689.667 100.333L690.333 100.667L689.667 100.333M792 100L793 101L792 100z"/>
<path style="fill:#5a7ea4; stroke:none;" d="M55 101L54 105L55 105L55 101z"/>
<path style="fill:#cacee2; stroke:none;" d="M686.667 101.333L687.333 101.667L686.667 101.333M789 101L790 102L789 101M684 102L685 103L684 102M787 102L788 103L787 102M681.667 103.333L682.333 103.667L681.667 103.333M784 103L785 104L784 103M679 104L680 105L679 104M782 104L783 105L782 104M798 104L799 105L798 104z"/>
<path style="fill:#010101; stroke:none;" d="M799 104C731.147 135.74 658.641 159.967 589 187.601C476.363 232.295 364.498 279.598 251 322.05C205.341 339.128 160.263 358.094 115 376.2C99.4109 382.436 76.108 397.465 58.9853 393.493C44.1641 390.055 39.4932 377.733 34.3997 365C23.3044 337.263 8.87469 308.791 1 280L0 280L0 600L595 600C595 594.575 594.326 588.602 598.394 584.34C603.294 579.208 610.544 580 617 580C632.864 580 642.998 581.851 643 600L800 600L800 496C784.764 488.89 789 468.841 789 455C789 449.556 788.123 443.172 790.148 438C792.098 433.021 798.275 430.625 799.682 425.791C801.291 420.266 800 412.734 800 407L800 123C782.916 127.049 766.21 136.301 750 142.989L648 184.989C538.663 230.103 429.548 275.801 320 320.397C281.267 336.164 242.81 352.628 204 368.2C194.291 372.096 184.721 376.336 175 380.2C173.515 380.79 164.575 384.218 166.346 379.212C167.29 376.543 171.7 375.545 174 374.576C181.651 371.351 189.325 368.178 197 365.011L289 327.011L660 174.011C696.666 158.879 733.266 143.569 770 128.603C780.685 124.25 805.672 119.901 799 104z"/>
<path style="fill:#cacee2; stroke:none;" d="M676.667 105.333L677.333 105.667L676.667 105.333M779 105L780 106L779 105M795 105L796 106L795 105M674 106L675 107L674 106M776 106L777 107L776 106M793 106L794 107L793 106M671.667 107.333L672.333 107.667L671.667 107.333M774 107L775 108L774 107M790 107L791 108L790 107M669 108L670 109L669 108M771 108L772 109L771 108M788 108L789 109L788 108M666.667 109.333L667.333 109.667L666.667 109.333M769 109L770 110L769 109M785 109L786 110L785 109z"/>
<path style="fill:#5a7ea4; stroke:none;" d="M52 110L52 113L53 113L52 110z"/>
<path style="fill:#cacee2; stroke:none;" d="M664 110L665 111L664 110M766 110L767 111L766 110M783 110L784 111L783 110M661.667 111.333L662.333 111.667L661.667 111.333M764 111L765 112L764 111M780 111L781 112L780 111M659 112L660 113L659 112M761 112L762 113L761 112M778 112L779 113L778 112M656.667 113.333L657.333 113.667L656.667 113.333M759 113L760 114L759 113M775 113L776 114L775 113M654 114L655 115L654 114M756 114L757 115L756 114M773 114L774 115L773 114M651.667 115.333L652.333 115.667L651.667 115.333M754 115L755 116L754 115M770 115L771 116L770 115M649 116L650 117L649 116M751 116L752 117L751 116M768 116L769 117L768 116M799 116L800 117L799 116M646.667 117.333L647.333 117.667L646.667 117.333M749 117L750 118L749 117M765 117L766 118L765 117M796 117L797 118L796 117z"/>
<path style="fill:#1796d1; stroke:none;" d="M166 383C183.056 378.958 199.81 369.692 216 363.011L318 321.011C428.996 275.212 539.789 228.876 651 183.603C689.066 168.107 727.102 152.479 765 136.576C773.694 132.927 799.187 127.471 800 117C781.958 120.206 762.909 131.48 746 138.576C713.092 152.385 680.054 165.941 647 179.397C535.141 224.933 423.364 270.844 312 317.576C274.774 333.197 237.467 348.767 200 363.8C192.371 366.861 165.199 373.721 166 383z"/>
<path style="fill:#5a7ea4; stroke:none;" d="M50 118L50 123L51 123L50 118z"/>
<path style="fill:#cacee2; stroke:none;" d="M644 118L645 119L644 118M746 118L747 119L746 118M794 118L795 119L794 118M641.667 119.333L642.333 119.667L641.667 119.333M744 119L745 120L744 119M760 119L761 120L760 119z"/>
<path style="fill:#5a7ea4; stroke:none;" d="M792 119L793 120L792 119z"/>
<path style="fill:#cacee2; stroke:none;" d="M639 120L640 121L639 120M741 120L742 121L741 120M789 120L790 121L789 120M636.667 121.333L637.333 121.667L636.667 121.333M739 121L740 122L739 121M755 121L756 122L755 121z"/>
<path style="fill:#5a7ea4; stroke:none;" d="M787 121L788 122L787 121z"/>
<path style="fill:#cacee2; stroke:none;" d="M634 122L635 123L634 122M736 122L737 123L736 122M784 122L785 123L784 122M799 122L800 123L799 122M631.667 123.333L632.333 123.667L631.667 123.333M734 123L735 124L734 123M750 123L751 124L750 123M782 123L783 124L782 123z"/>
<path style="fill:#5a7ea4; stroke:none;" d="M796 123L797 124L796 123z"/>
<path style="fill:#cacee2; stroke:none;" d="M797 123L798 124L797 123M629 124L630 125L629 124M731 124L732 125L731 124M779 124L780 125L779 124M794 124L795 125L794 124M626.667 125.333L627.333 125.667L626.667 125.333M729 125L730 126L729 125M745 125L746 126L745 125M777 125L778 126L777 125z"/>
<path style="fill:#5a7ea4; stroke:none;" d="M791 125L792 126L791 125z"/>
<path style="fill:#cacee2; stroke:none;" d="M792 125L793 126L792 125M624 126L625 127L624 126M726 126L727 127L726 126z"/>
<path style="fill:#5a7ea4; stroke:none;" d="M775 126L776 127L775 126M789 126L790 127L789 126M49 127L48 131L49 131L49 127z"/>
<path style="fill:#cacee2; stroke:none;" d="M621.667 127.333L622.333 127.667L621.667 127.333M724 127L725 128L724 127M740 127L741 128L740 127M772 127L773 128L772 127M787 127L788 128L787 127M619 128L620 129L619 128M721 128L722 129L721 128M770 128L771 129L770 128z"/>
<path style="fill:#5a7ea4; stroke:none;" d="M784 128L785 129L784 128z"/>
<path style="fill:#cacee2; stroke:none;" d="M616.667 129.333L617.333 129.667L616.667 129.333M719 129L720 130L719 129M735 129L736 130L735 129M767 129L768 130L767 129M782 129L783 130L782 129M614 130L615 131L614 130M716 130L717 131L716 130M732 130L733 131L732 130M765 130L766 131L765 130z"/>
<path style="fill:#5a7ea4; stroke:none;" d="M779 130L780 131L779 130z"/>
<path style="fill:#cacee2; stroke:none;" d="M780 130L781 131L780 130M611.667 131.333L612.333 131.667L611.667 131.333M714 131L715 132L714 131M730 131L731 132L730 131z"/>
<path style="fill:#5a7ea4; stroke:none;" d="M763 131L764 132L763 131z"/>
<path style="fill:#cacee2; stroke:none;" d="M777 131L778 132L777 131M609 132L610 133L609 132M711 132L712 133L711 132M727 132L728 133L727 132M760 132L761 133L760 132z"/>
<path style="fill:#5a7ea4; stroke:none;" d="M774 132L775 133L774 132z"/>
<path style="fill:#cacee2; stroke:none;" d="M775 132L776 133L775 132M606.667 133.333L607.333 133.667L606.667 133.333M709 133L710 134L709 133M725 133L726 134L725 133M758 133L759 134L758 133M772 133L773 134L772 133M604 134L605 135L604 134M706 134L707 135L706 134M722 134L723 135L722 134M755 134L756 135L755 134z"/>
<path style="fill:#5a7ea4; stroke:none;" d="M769 134L770 135L769 134z"/>
<path style="fill:#cacee2; stroke:none;" d="M770 134L771 135L770 134z"/>
<path style="fill:#5a7ea4; stroke:none;" d="M47 135L46 139L47 139L47 135z"/>
<path style="fill:#cacee2; stroke:none;" d="M601.667 135.333L602.333 135.667L601.667 135.333M704 135L705 136L704 135M720 135L721 136L720 135M753 135L754 136L753 135M767 135L768 136L767 135M599 136L600 137L599 136M701 136L702 137L701 136M717 136L718 137L717 136M750 136L751 137L750 136M765 136L766 137L765 136M596 137L597 138L596 137M699 137L700 138L699 137M715 137L716 138L715 137M748 137L749 138L748 137z"/>
<path style="fill:#5a7ea4; stroke:none;" d="M762 137L763 138L762 137z"/>
<path style="fill:#cacee2; stroke:none;" d="M594 138L595 139L594 138M696 138L697 139L696 138M712 138L713 139L712 138z"/>
<path style="fill:#5a7ea4; stroke:none;" d="M746 138L747 139L746 138z"/>
<path style="fill:#cacee2; stroke:none;" d="M760 138L761 139L760 138M591 139L592 140L591 139M694 139L695 140L694 139M710 139L711 140L710 139M743 139L744 140L743 139z"/>
<path style="fill:#5a7ea4; stroke:none;" d="M757 139L758 140L757 139z"/>
<path style="fill:#cacee2; stroke:none;" d="M758 139L759 140L758 139M588.667 140.333L589.333 140.667L588.667 140.333M691 140L692 141L691 140M707 140L708 141L707 140M741 140L742 141L741 140M755 140L756 141L755 140M586 141L587 142L586 141M689 141L690 142L689 141M705 141L706 142L705 141M738 141L739 142L738 141M753 141L754 142L753 141M583.667 142.333L584.333 142.667L583.667 142.333M686 142L687 143L686 142M702 142L703 143L702 142M736 142L737 143L736 142z"/>
<path style="fill:#5a7ea4; stroke:none;" d="M750 142L751 143L750 142z"/>
<path style="fill:#cacee2; stroke:none;" d="M751 142L752 143L751 142M581 143L582 144L581 143M684 143L685 144L684 143M700 143L701 144L700 143z"/>
<path style="fill:#5a7ea4; stroke:none;" d="M734 143L735 144L734 143z"/>
<path style="fill:#cacee2; stroke:none;" d="M748 143L749 144L748 143z"/>
<path style="fill:#5a7ea4; stroke:none;" d="M44 144L44 147L45 147L44 144z"/>
<path style="fill:#cacee2; stroke:none;" d="M578.667 144.333L579.333 144.667L578.667 144.333M681 144L682 145L681 144M697 144L698 145L697 144M731 144L732 145L731 144z"/>
<path style="fill:#5a7ea4; stroke:none;" d="M745 144L746 145L745 144z"/>
<path style="fill:#cacee2; stroke:none;" d="M746 144L747 145L746 144M576 145L577 146L576 145M679 145L680 146L679 145M695 145L696 146L695 145z"/>
<path style="fill:#5a7ea4; stroke:none;" d="M729 145L730 146L729 145z"/>
<path style="fill:#cacee2; stroke:none;" d="M743 145L744 146L743 145M573.667 146.333L574.333 146.667L573.667 146.333M676 146L677 147L676 146M692 146L693 147L692 146M726 146L727 147L726 146z"/>
<path style="fill:#5a7ea4; stroke:none;" d="M740 146L741 147L740 146z"/>
<path style="fill:#cacee2; stroke:none;" d="M741 146L742 147L741 146M571 147L572 148L571 147M674 147L675 148L674 147M690 147L691 148L690 147M724 147L725 148L724 147M738 147L739 148L738 147M568.667 148.333L569.333 148.667L568.667 148.333M671 148L672 149L671 148M687 148L688 149L687 148M721 148L722 149L721 148M736 148L737 149L736 148M566 149L567 150L566 149M669 149L670 150L669 149M685 149L686 150L685 149M719 149L720 150L719 149z"/>
<path style="fill:#5a7ea4; stroke:none;" d="M733 149L734 150L733 149z"/>
<path style="fill:#cacee2; stroke:none;" d="M734 149L735 150L734 149M563.667 150.333L564.333 150.667L563.667 150.333M666 150L667 151L666 150M682 150L683 151L682 150z"/>
<path style="fill:#5a7ea4; stroke:none;" d="M717 150L718 151L717 150z"/>
<path style="fill:#cacee2; stroke:none;" d="M731 150L732 151L731 150M561 151L562 152L561 151M663.667 151.333L664.333 151.667L663.667 151.333M680 151L681 152L680 151M714 151L715 152L714 151z"/>
<path style="fill:#5a7ea4; stroke:none;" d="M728 151L729 152L728 151z"/>
<path style="fill:#cacee2; stroke:none;" d="M729 151L730 152L729 151z"/>
<path style="fill:#5a7ea4; stroke:none;" d="M42 152L42 157L43 157L42 152z"/>
<path style="fill:#cacee2; stroke:none;" d="M558.667 152.333L559.333 152.667L558.667 152.333M661 152L662 153L661 152M677 152L678 153L677 152M712 152L713 153L712 152M726 152L727 153L726 152M556 153L557 154L556 153M658 153L659 154L658 153M675 153L676 154L675 153M709 153L710 154L709 153z"/>
<path style="fill:#5a7ea4; stroke:none;" d="M723 153L724 154L723 153z"/>
<path style="fill:#cacee2; stroke:none;" d="M724 153L725 154L724 153M553.667 154.333L554.333 154.667L553.667 154.333M656 154L657 155L656 154M672 154L673 155L672 154M707 154L708 155L707 154M721 154L722 155L721 154M551 155L552 156L551 155M653 155L654 156L653 155M704 155L705 156L704 155M719 155L720 156L719 155M548.667 156.333L549.333 156.667L548.667 156.333M651 156L652 157L651 156M667 156L668 157L667 156M702 156L703 157L702 156z"/>
<path style="fill:#5a7ea4; stroke:none;" d="M716 156L717 157L716 156z"/>
<path style="fill:#cacee2; stroke:none;" d="M717 156L718 157L717 156M546 157L547 158L546 157M648 157L649 158L648 157z"/>
<path style="fill:#5a7ea4; stroke:none;" d="M700 157L701 158L700 157z"/>
<path style="fill:#cacee2; stroke:none;" d="M714 157L715 158L714 157M543.667 158.333L544.333 158.667L543.667 158.333M646 158L647 159L646 158M662 158L663 159L662 158M697 158L698 159L697 158z"/>
<path style="fill:#5a7ea4; stroke:none;" d="M711 158L712 159L711 158z"/>
<path style="fill:#cacee2; stroke:none;" d="M712 158L713 159L712 158M541 159L542 160L541 159M643 159L644 160L643 159M695 159L696 160L695 159M709 159L710 160L709 159M0 160L1 161L0 160z"/>
<path style="fill:#5a7ea4; stroke:none;" d="M40 160L40 165L41 165L40 160z"/>
<path style="fill:#cacee2; stroke:none;" d="M538.667 160.333L539.333 160.667L538.667 160.333M641 160L642 161L641 160M657 160L658 161L657 160M692 160L693 161L692 160M707 160L708 161L707 160M536 161L537 162L536 161M638 161L639 162L638 161M690 161L691 162L690 161M704 161L705 162L704 161M533.667 162.333L534.333 162.667L533.667 162.333M636 162L637 163L636 162M652 162L653 163L652 162M687 162L688 163L687 162M702 162L703 163L702 162M1 163L2 164L1 163M531 163L532 164L531 163M633 163L634 164L633 163M649 163L650 164L649 163M685 163L686 164L685 163z"/>
<path style="fill:#5a7ea4; stroke:none;" d="M699 163L700 164L699 163z"/>
<path style="fill:#cacee2; stroke:none;" d="M700 163L701 164L700 163M528.667 164.333L529.333 164.667L528.667 164.333M631 164L632 165L631 164M647 164L648 165L647 164z"/>
<path style="fill:#5a7ea4; stroke:none;" d="M683 164L684 165L683 164z"/>
<path style="fill:#cacee2; stroke:none;" d="M697 164L698 165L697 164M2 165L3 166L2 165M526 165L527 166L526 165M628 165L629 166L628 165M644 165L645 166L644 165M680 165L681 166L680 165z"/>
<path style="fill:#5a7ea4; stroke:none;" d="M694 165L695 166L694 165z"/>
<path style="fill:#cacee2; stroke:none;" d="M695 165L696 166L695 165M523.667 166.333L524.333 166.667L523.667 166.333M626 166L627 167L626 166M642 166L643 167L642 166M678 166L679 167L678 166M692 166L693 167L692 166M521 167L522 168L521 167M623 167L624 168L623 167M639 167L640 168L639 167M675 167L676 168L675 167M690 167L691 168L690 167M3 168L4 169L3 168M518 168L519 169L518 168M621 168L622 169L621 168M637 168L638 169L637 168M673 168L674 169L673 168M687 168L688 169L687 168z"/>
<path style="fill:#5a7ea4; stroke:none;" d="M39 169L38 173L39 173L39 169z"/>
<path style="fill:#cacee2; stroke:none;" d="M516 169L517 170L516 169M618 169L619 170L618 169M634 169L635 170L634 169M670 169L671 170L670 169M685 169L686 170L685 169M4 170L5 171L4 170M513 170L514 171L513 170M616 170L617 171L616 170M632 170L633 171L632 170M668 170L669 171L668 170z"/>
<path style="fill:#5a7ea4; stroke:none;" d="M682 170L683 171L682 170z"/>
<path style="fill:#cacee2; stroke:none;" d="M683 170L684 171L683 170M511 171L512 172L511 171M613 171L614 172L613 171M629 171L630 172L629 171z"/>
<path style="fill:#5a7ea4; stroke:none;" d="M666 171L667 172L666 171z"/>
<path style="fill:#cacee2; stroke:none;" d="M680 171L681 172L680 171M508 172L509 173L508 172M611 172L612 173L611 172M627 172L628 173L627 172M663 172L664 173L663 172z"/>
<path style="fill:#5a7ea4; stroke:none;" d="M677 172L678 173L677 172z"/>
<path style="fill:#cacee2; stroke:none;" d="M678 172L679 173L678 172M5 173L6 174L5 173M506 173L507 174L506 173M608 173L609 174L608 173M624 173L625 174L624 173M661 173L662 174L661 173M675 173L676 174L675 173M503.667 174.333L504.333 174.667L503.667 174.333M606 174L607 175L606 174M622 174L623 175L622 174M658 174L659 175L658 174M673 174L674 175L673 174M6 175L7 176L6 175M501 175L502 176L501 175M603 175L604 176L603 175M619 175L620 176L619 175M656 175L657 176L656 175M670 175L671 176L670 175M498 176L499 177L498 176M601 176L602 177L601 176M617 176L618 177L617 176M668 176L669 177L668 176M496 177L497 178L496 177M598 177L599 178L598 177M614 177L615 178L614 177M651 177L652 178L651 177z"/>
<path style="fill:#5a7ea4; stroke:none;" d="M665 177L666 178L665 177z"/>
<path style="fill:#cacee2; stroke:none;" d="M666 177L667 178L666 177M7 178L8 179L7 178z"/>
<path style="fill:#5a7ea4; stroke:none;" d="M36 178L36 181L37 181L36 178z"/>
<path style="fill:#cacee2; stroke:none;" d="M493 178L494 179L493 178M596 178L597 179L596 178M612 178L613 179L612 178z"/>
<path style="fill:#5a7ea4; stroke:none;" d="M649 178L650 179L649 178z"/>
<path style="fill:#cacee2; stroke:none;" d="M663 178L664 179L663 178M491 179L492 180L491 179M593 179L594 180L593 179M609 179L610 180L609 179M646 179L647 180L646 179M661 179L662 180L661 179M8 180L9 181L8 180M488 180L489 181L488 180M591 180L592 181L591 180M607 180L608 181L607 180M644 180L645 181L644 180M658 180L659 181L658 180M486 181L487 182L486 181M588 181L589 182L588 181M604 181L605 182L604 181M641 181L642 182L641 181M656 181L657 182L656 181M483 182L484 183L483 182M586 182L587 183L586 182M602 182L603 183L602 182M639 182L640 183L639 182M653 182L654 183L653 182M9 183L10 184L9 183M481 183L482 184L481 183M583 183L584 184L583 183M599 183L600 184L599 183M651 183L652 184L651 183M478 184L479 185L478 184M581 184L582 185L581 184M597 184L598 185L597 184M634 184L635 185L634 184z"/>
<path style="fill:#5a7ea4; stroke:none;" d="M648 184L649 185L648 184z"/>
<path style="fill:#cacee2; stroke:none;" d="M649 184L650 185L649 184M476 185L477 186L476 185M578 185L579 186L578 185M594 185L595 186L594 185M632 185L633 186L632 185M646 185L647 186L646 185z"/>
<path style="fill:#5a7ea4; stroke:none;" d="M34 186L34 189L35 189L34 186z"/>
<path style="fill:#cacee2; stroke:none;" d="M473 186L474 187L473 186M576 186L577 187L576 186M629 186L630 187L629 186M644 186L645 187L644 186M471 187L472 188L471 187M573 187L574 188L573 187M589 187L590 188L589 187M627 187L628 188L627 187M641 187L642 188L641 187M11 188L12 189L11 188M468 188L469 189L468 188M571 188L572 189L571 188M624 188L625 189L624 188M639 188L640 189L639 188M466 189L467 190L466 189M568 189L569 190L568 189M584 189L585 190L584 189M622 189L623 190L622 189M636 189L637 190L636 189M463 190L464 191L463 190M566 190L567 191L566 190M634 190L635 191L634 190M461 191L462 192L461 191M563 191L564 192L563 191M579 191L580 192L579 191M617 191L618 192L617 191z"/>
<path style="fill:#5a7ea4; stroke:none;" d="M631 191L632 192L631 191z"/>
<path style="fill:#cacee2; stroke:none;" d="M632 191L633 192L632 191M458 192L459 193L458 192M561 192L562 193L561 192M615 192L616 193L615 192M629 192L630 193L629 192M13 193L14 194L13 193M456 193L457 194L456 193M558 193L559 194L558 193M574 193L575 194L574 193M612 193L613 194L612 193M627 193L628 194L627 193z"/>
<path style="fill:#5a7ea4; stroke:none;" d="M32 194L32 199L33 199L32 194z"/>
<path style="fill:#cacee2; stroke:none;" d="M453 194L454 195L453 194M556 194L557 195L556 194M610 194L611 195L610 194M624 194L625 195L624 194M451 195L452 196L451 195M553 195L554 196L553 195M569 195L570 196L569 195M607 195L608 196L607 195M622 195L623 196L622 195M448 196L449 197L448 196M551 196L552 197L551 196M566 196L567 197L566 196M605 196L606 197L605 196M619 196L620 197L619 196M446 197L447 198L446 197M548 197L549 198L548 197M564 197L565 198L564 197M617 197L618 198L617 197M15 198L16 199L15 198M443 198L444 199L443 198M546 198L547 199L546 198M561 198L562 199L561 198M600 198L601 199L600 198z"/>
<path style="fill:#5a7ea4; stroke:none;" d="M614 198L615 199L614 198z"/>
<path style="fill:#cacee2; stroke:none;" d="M615 198L616 199L615 198M441 199L442 200L441 199M543 199L544 200L543 199M559 199L560 200L559 199M598 199L599 200L598 199M612 199L613 200L612 199M438 200L439 201L438 200M541 200L542 201L541 200M556 200L557 201L556 200M595 200L596 201L595 200M610 200L611 201L610 200M435.667 201.333L436.333 201.667L435.667 201.333M538 201L539 202L538 201M554 201L555 202L554 201M593 201L594 202L593 201M607 201L608 202L607 201M433 202L434 203L433 202M535.667 202.333L536.333 202.667L535.667 202.333M551 202L552 203L551 202M590 202L591 203L590 202M605 202L606 203L605 202M17 203L18 204L17 203z"/>
<path style="fill:#5a7ea4; stroke:none;" d="M31 203L30 207L31 207L31 203z"/>
<path style="fill:#ae7bc4; stroke:none;" d="M430 203L431 204L430 203z"/>
<path style="fill:#cacee2; stroke:none;" d="M431 203L432 204L431 203M533 203L534 204L533 203M549 203L550 204L549 203M588 203L589 204L588 203M602.667 203.333L603.333 203.667L602.667 203.333M428 204L429 205L428 204M530 204L531 205L530 204M546 204L547 205L546 204M600 204L601 205L600 204M425.667 205.333L426.333 205.667L425.667 205.333M528 205L529 206L528 205M544 205L545 206L544 205M583 205L584 206L583 205z"/>
<path style="fill:#5a7ea4; stroke:none;" d="M597 205L598 206L597 205z"/>
<path style="fill:#cacee2; stroke:none;" d="M598 205L599 206L598 205M423 206L424 207L423 206M525 206L526 207L525 206M541 206L542 207L541 206M581 206L582 207L581 206M595 206L596 207L595 206M420.667 207.333L421.333 207.667L420.667 207.333M523 207L524 208L523 207M539 207L540 208L539 207M578 207L579 208L578 207M593 207L594 208L593 207M19 208L20 209L19 208M418 208L419 209L418 208M520 208L521 209L520 208M536 208L537 209L536 208M576 208L577 209L576 208M590 208L591 209L590 208M415.667 209.333L416.333 209.667L415.667 209.333M518 209L519 210L518 209M534 209L535 210L534 209M573 209L574 210L573 209M588 209L589 210L588 209M413 210L414 211L413 210M515 210L516 211L515 210M531 210L532 211L531 210M571 210L572 211L571 210M585.667 210.333L586.333 210.667L585.667 210.333z"/>
<path style="fill:#5a7ea4; stroke:none;" d="M29 211L28 215L29 215L29 211z"/>
<path style="fill:#cacee2; stroke:none;" d="M410.667 211.333L411.333 211.667L410.667 211.333M513 211L514 212L513 211M529 211L530 212L529 211M583 211L584 212L583 211M408 212L409 213L408 212M510 212L511 213L510 212M526 212L527 213L526 212M566 212L567 213L566 212M581 212L582 213L581 212M21 213L22 214L21 213M405.667 213.333L406.333 213.667L405.667 213.333M507 213L508 214L507 213M524 213L525 214L524 213M564 213L565 214L564 213M578 213L579 214L578 213M403 214L404 215L403 214M505 214L506 215L505 214M521 214L522 215L521 214M561 214L562 215L561 214M576 214L577 215L576 214M400.667 215.333L401.333 215.667L400.667 215.333M502 215L503 216L502 215M519 215L520 216L519 215M559 215L560 216L559 215M573 215L574 216L573 215M398 216L399 217L398 216M500 216L501 217L500 216M516 216L517 217L516 216M556 216L557 217L556 216M571 216L572 217L571 216M395 217L396 218L395 217M497 217L498 218L497 217M514 217L515 218L514 217M554 217L555 218L554 217M568.667 217.333L569.333 217.667L568.667 217.333M23 218L24 219L23 218M393 218L394 219L393 218M495 218L496 219L495 218M511 218L512 219L511 218M552 218L553 219L552 218M566 218L567 219L566 218M390 219L391 220L390 219M492 219L493 220L492 219M509 219L510 220L509 219M549 219L550 220L549 219M564 219L565 220L564 219z"/>
<path style="fill:#5a7ea4; stroke:none;" d="M26 220L26 223L27 223L26 220z"/>
<path style="fill:#cacee2; stroke:none;" d="M388 220L389 221L388 220M490 220L491 221L490 220M506 220L507 221L506 220M547 220L548 221L547 220M561 220L562 221L561 220M385 221L386 222L385 221M487 221L488 222L487 221M544 221L545 222L544 221M559 221L560 222L559 221M383 222L384 223L383 222M485 222L486 223L485 222M501 222L502 223L501 222M542 222L543 223L542 222M556 222L557 223L556 222M25 223L26 224L25 223M380 223L381 224L380 223M482 223L483 224L482 223M554 223L555 224L554 223M378 224L379 225L378 224M480 224L481 225L480 224M496 224L497 225L496 224M537 224L538 225L537 224M551.667 224.333L552.333 224.667L551.667 224.333z"/>
<path style="fill:#ae7bc4; stroke:none;" d="M26 225L27 226L26 225z"/>
<path style="fill:#cacee2; stroke:none;" d="M375 225L376 226L375 225M477 225L478 226L477 225M535 225L536 226L535 225M549 225L550 226L549 225M373 226L374 227L373 226M475 226L476 227L475 226M491 226L492 227L491 226M532 226L533 227L532 226M547 226L548 227L547 226z"/>
<path style="fill:#ae7bc4; stroke:none;" d="M27 227L28 228L27 227z"/>
<path style="fill:#cacee2; stroke:none;" d="M370 227L371 228L370 227M472 227L473 228L472 227M530 227L531 228L530 227M544 227L545 228L544 227M27 228L28 229L27 228M368 228L369 229L368 228M470 228L471 229L470 228M486 228L487 229L486 228M527 228L528 229L527 228M542 228L543 229L542 228M365 229L366 230L365 229M467 229L468 230L467 229M525 229L526 230L525 229M539 229L540 230L539 229z"/>
<path style="fill:#ae7bc4; stroke:none;" d="M28 230L29 231L28 230z"/>
<path style="fill:#cacee2; stroke:none;" d="M363 230L364 231L363 230M465 230L466 231L465 230M481 230L482 231L481 230M537 230L538 231L537 230M360 231L361 232L360 231M462 231L463 232L462 231M478 231L479 232L478 231M520 231L521 232L520 231M534.667 231.333L535.333 231.667L534.667 231.333z"/>
<path style="fill:#ae7bc4; stroke:none;" d="M29 232L30 233L29 232z"/>
<path style="fill:#cacee2; stroke:none;" d="M358 232L359 233L358 232M460 232L461 233L460 232M476 232L477 233L476 232M518 232L519 233L518 232M532 232L533 233L532 232M29 233L30 234L29 233M355 233L356 234L355 233M457 233L458 234L457 233M473 233L474 234L473 233M515 233L516 234L515 233M530 233L531 234L530 233M353 234L354 235L353 234M455 234L456 235L455 234M471 234L472 235L471 234M513 234L514 235L513 234M527 234L528 235L527 234z"/>
<path style="fill:#ae7bc4; stroke:none;" d="M30 235L31 236L30 235z"/>
<path style="fill:#cacee2; stroke:none;" d="M350 235L351 236L350 235M452 235L453 236L452 235M468 235L469 236L468 235M510 235L511 236L510 235M525 235L526 236L525 235M348 236L349 237L348 236M450 236L451 237L450 236M466 236L467 237L466 236M508 236L509 237L508 236M522 236L523 237L522 236M345 237L346 238L345 237M447 237L448 238L447 237M463 237L464 238L463 237M506 237L507 238L506 237M520 237L521 238L520 237M31 238L32 239L31 238M343 238L344 239L343 238M445 238L446 239L445 238M461 238L462 239L461 238M503 238L504 239L503 238M517.667 238.333L518.333 238.667L517.667 238.333M340 239L341 240L340 239M442 239L443 240L442 239M458 239L459 240L458 239M501 239L502 240L501 239M515 239L516 240L515 239z"/>
<path style="fill:#ae7bc4; stroke:none;" d="M32 240L33 241L32 240z"/>
<path style="fill:#cacee2; stroke:none;" d="M338 240L339 241L338 240M440 240L441 241L440 240M456 240L457 241L456 240M498 240L499 241L498 240M513 240L514 241L513 240M335 241L336 242L335 241M437 241L438 242L437 241M453 241L454 242L453 241M496 241L497 242L496 241M510 241L511 242L510 241M333 242L334 243L333 242M435 242L436 243L435 242M451 242L452 243L451 242M494 242L495 243L494 242M508 242L509 243L508 242M33 243L34 244L33 243M330 243L331 244L330 243M432 243L433 244L432 243M448 243L449 244L448 243M491 243L492 244L491 243M505.667 243.333L506.333 243.667L505.667 243.333M328 244L329 245L328 244M430 244L431 245L430 244M446 244L447 245L446 244M489 244L490 245L489 244M503 244L504 245L503 244z"/>
<path style="fill:#ae7bc4; stroke:none;" d="M34 245L35 246L34 245z"/>
<path style="fill:#cacee2; stroke:none;" d="M325 245L326 246L325 245M427 245L428 246L427 245M443 245L444 246L443 245M486 245L487 246L486 245M501 245L502 246L501 245z"/>
<path style="fill:#ae7bc4; stroke:none;" d="M322 246L323 247L322 246z"/>
<path style="fill:#cacee2; stroke:none;" d="M323 246L324 247L323 246M425 246L426 247L425 246M441 246L442 247L441 246M484 246L485 247L484 246M498 246L499 247L498 246M320 247L321 248L320 247M422 247L423 248L422 247M438 247L439 248L438 247M481 247L482 248L481 247M496 247L497 248L496 247M35 248L36 249L35 248z"/>
<path style="fill:#ae7bc4; stroke:none;" d="M317 248L318 249L317 248z"/>
<path style="fill:#cacee2; stroke:none;" d="M318 248L319 249L318 248M420 248L421 249L420 248M436 248L437 249L436 248M479 248L480 249L479 248M493.667 248.333L494.333 248.667L493.667 248.333M315 249L316 250L315 249M417 249L418 250L417 249M433 249L434 250L433 249M477 249L478 250L477 249M491 249L492 250L491 249z"/>
<path style="fill:#ae7bc4; stroke:none;" d="M36 250L37 251L36 250M312 250L313 251L312 250z"/>
<path style="fill:#cacee2; stroke:none;" d="M313 250L314 251L313 250M415 250L416 251L415 250M431 250L432 251L431 250M474 250L475 251L474 250M488.667 250.333L489.333 250.667L488.667 250.333M310 251L311 252L310 251M412 251L413 252L412 251M428 251L429 252L428 251M472 251L473 252L472 251M486 251L487 252L486 251z"/>
<path style="fill:#ae7bc4; stroke:none;" d="M307 252L308 253L307 252z"/>
<path style="fill:#cacee2; stroke:none;" d="M308 252L309 253L308 252M409.667 252.333L410.333 252.667L409.667 252.333M426 252L427 253L426 252M469 252L470 253L469 252M484 252L485 253L484 252M37 253L38 254L37 253M305 253L306 254L305 253M407 253L408 254L407 253M423 253L424 254L423 253M467 253L468 254L467 253M481 253L482 254L481 253z"/>
<path style="fill:#ae7bc4; stroke:none;" d="M302 254L303 255L302 254z"/>
<path style="fill:#cacee2; stroke:none;" d="M303 254L304 255L303 254M404 254L405 255L404 254M421 254L422 255L421 254M479 254L480 255L479 254z"/>
<path style="fill:#ae7bc4; stroke:none;" d="M38 255L39 256L38 255z"/>
<path style="fill:#cacee2; stroke:none;" d="M300 255L301 256L300 255M402 255L403 256L402 255M418 255L419 256L418 255M462 255L463 256L462 255M476.667 255.333L477.333 255.667L476.667 255.333M38 256L39 257L38 256z"/>
<path style="fill:#ae7bc4; stroke:none;" d="M297 256L298 257L297 256z"/>
<path style="fill:#cacee2; stroke:none;" d="M298 256L299 257L298 256M399 256L400 257L399 256M416 256L417 257L416 256M460 256L461 257L460 256M474 256L475 257L474 256M295 257L296 258L295 257M397 257L398 258L397 257M413 257L414 258L413 257M457 257L458 258L457 257M472 257L473 258L472 257M39 258L40 259L39 258z"/>
<path style="fill:#ae7bc4; stroke:none;" d="M292 258L293 259L292 258z"/>
<path style="fill:#cacee2; stroke:none;" d="M293 258L294 259L293 258M394 258L395 259L394 258M411 258L412 259L411 258M455 258L456 259L455 258M469 258L470 259L469 258M290 259L291 260L290 259M392 259L393 260L392 259M408 259L409 260L408 259M452 259L453 260L452 259M467 259L468 260L467 259z"/>
<path style="fill:#ae7bc4; stroke:none;" d="M40 260L41 261L40 260M287 260L288 261L287 260z"/>
<path style="fill:#cacee2; stroke:none;" d="M288 260L289 261L288 260M389 260L390 261L389 260M406 260L407 261L406 260M450 260L451 261L450 260M464 260L465 261L464 260M40 261L41 262L40 261M285 261L286 262L285 261M387 261L388 262L387 261M403 261L404 262L403 261M447 261L448 262L447 261M462 261L463 262L462 261z"/>
<path style="fill:#ae7bc4; stroke:none;" d="M282 262L283 263L282 262z"/>
<path style="fill:#cacee2; stroke:none;" d="M283 262L284 263L283 262M384 262L385 263L384 262M445 262L446 263L445 262M459.667 262.333L460.333 262.667L459.667 262.333M0 263L1 264L0 263M41 263L42 264L41 263M280 263L281 264L280 263M382 263L383 264L382 263M398 263L399 264L398 263M443 263L444 264L443 263M457 263L458 264L457 263z"/>
<path style="fill:#ae7bc4; stroke:none;" d="M277 264L278 265L277 264z"/>
<path style="fill:#cacee2; stroke:none;" d="M278 264L279 265L278 264M379 264L380 265L379 264M440 264L441 265L440 264M455 264L456 265L455 264z"/>
<path style="fill:#ae7bc4; stroke:none;" d="M42 265L43 266L42 265z"/>
<path style="fill:#cacee2; stroke:none;" d="M275 265L276 266L275 265M377 265L378 266L377 265M393 265L394 266L393 265M438 265L439 266L438 265M452 265L453 266L452 265M1 266L2 267L1 266M42 266L43 267L42 266z"/>
<path style="fill:#ae7bc4; stroke:none;" d="M272 266L273 267L272 266z"/>
<path style="fill:#cacee2; stroke:none;" d="M273 266L274 267L273 266M374 266L375 267L374 266M435 266L436 267L435 266M450 266L451 267L450 266M270 267L271 268L270 267M372 267L373 268L372 267M388 267L389 268L388 267M433 267L434 268L433 267M447.667 267.333L448.333 267.667L447.667 267.333M2 268L3 269L2 268M43 268L44 269L43 268z"/>
<path style="fill:#ae7bc4; stroke:none;" d="M267 268L268 269L267 268z"/>
<path style="fill:#cacee2; stroke:none;" d="M268 268L269 269L268 268M369 268L370 269L369 268M430 268L431 269L430 268M445 268L446 269L445 268M265 269L266 270L265 269M367 269L368 270L367 269M383 269L384 270L383 269M428 269L429 270L428 269M442.667 269.333L443.333 269.667L442.667 269.333z"/>
<path style="fill:#ae7bc4; stroke:none;" d="M262 270L263 271L262 270z"/>
<path style="fill:#cacee2; stroke:none;" d="M263 270L264 271L263 270M364 270L365 271L364 270M380 270L381 271L380 270M426 270L427 271L426 270M440 270L441 271L440 270M3 271L4 272L3 271M44 271L45 272L44 271M260 271L261 272L260 271M362 271L363 272L362 271M378 271L379 272L378 271M423 271L424 272L423 271M438 271L439 272L438 271z"/>
<path style="fill:#ae7bc4; stroke:none;" d="M257 272L258 273L257 272z"/>
<path style="fill:#cacee2; stroke:none;" d="M258 272L259 273L258 272M359 272L360 273L359 272M375 272L376 273L375 272M421 272L422 273L421 272M435 272L436 273L435 272M4 273L5 274L4 273M45 273L46 274L45 273z"/>
<path style="fill:#ae7bc4; stroke:none;" d="M254 273L255 274L254 273z"/>
<path style="fill:#cacee2; stroke:none;" d="M255 273L256 274L255 273M357 273L358 274L357 273M373 273L374 274L373 273M418 273L419 274L418 273M433 273L434 274L433 273M252 274L253 275L252 274M354 274L355 275L354 274M370 274L371 275L370 274M416 274L417 275L416 274M430.667 274.333L431.333 274.667L430.667 274.333z"/>
<path style="fill:#ae7bc4; stroke:none;" d="M249 275L250 276L249 275z"/>
<path style="fill:#cacee2; stroke:none;" d="M250 275L251 276L250 275M352 275L353 276L352 275M368 275L369 276L368 275M413 275L414 276L413 275M428 275L429 276L428 275M5 276L6 277L5 276M46 276L47 277L46 276M247 276L248 277L247 276M349 276L350 277L349 276M365 276L366 277L365 276M411 276L412 277L411 276M426 276L427 277L426 276M244 277L245 278L244 277M347 277L348 278L347 277M363 277L364 278L363 277M409 277L410 278L409 277M423 277L424 278L423 277M6 278L7 279L6 278z"/>
<path style="fill:#ae7bc4; stroke:none;" d="M47 278L48 279L47 278z"/>
<path style="fill:#cacee2; stroke:none;" d="M242 278L243 279L242 278M344 278L345 279L344 278M360 278L361 279L360 278M406 278L407 279L406 278M421 278L422 279L421 278M239 279L240 280L239 279M342 279L343 280L342 279M358 279L359 280L358 279M404 279L405 280L404 279M418 279L419 280L418 279M237 280L238 281L237 280M339 280L340 281L339 280M355 280L356 281L355 280M401 280L402 281L401 280M416 280L417 281L416 280M7 281L8 282L7 281M48 281L49 282L48 281M234 281L235 282L234 281M337 281L338 282L337 281M353 281L354 282L353 281M399 281L400 282L399 281M413.667 281.333L414.333 281.667L413.667 281.333M1 282L2 283L1 282M232 282L233 283L232 282M334 282L335 283L334 282M350 282L351 283L350 282M411 282L412 283L411 282M8 283L9 284L8 283z"/>
<path style="fill:#ae7bc4; stroke:none;" d="M49 283L50 284L49 283z"/>
<path style="fill:#cacee2; stroke:none;" d="M229 283L230 284L229 283M332 283L333 284L332 283M348 283L349 284L348 283M394 283L395 284L394 283M409 283L410 284L409 283M2 284L3 285L2 284M227 284L228 285L227 284M329 284L330 285L329 284M345 284L346 285L345 284M392 284L393 285L392 284M406 284L407 285L406 284M224 285L225 286L224 285M327 285L328 286L327 285M343 285L344 286L343 285M389 285L390 286L389 285M404 285L405 286L404 285M9 286L10 287L9 286M50 286L51 287L50 286M222 286L223 287L222 286M324 286L325 287L324 286M340 286L341 287L340 286M387 286L388 287L387 286M401.667 286.333L402.333 286.667L401.667 286.333M3 287L4 288L3 287M219 287L220 288L219 287M322 287L323 288L322 287M338 287L339 288L338 287M384 287L385 288L384 287M399 287L400 288L399 287M10 288L11 289L10 288z"/>
<path style="fill:#ae7bc4; stroke:none;" d="M51 288L52 289L51 288z"/>
<path style="fill:#cacee2; stroke:none;" d="M217 288L218 289L217 288M319 288L320 289L319 288M335 288L336 289L335 288M382 288L383 289L382 288M396.667 288.333L397.333 288.667L396.667 288.333M4 289L5 290L4 289M214 289L215 290L214 289M317 289L318 290L317 289M333 289L334 290L333 289M394 289L395 290L394 289z"/>
<path style="fill:#ae7bc4; stroke:none;" d="M211 290L212 291L211 290z"/>
<path style="fill:#cacee2; stroke:none;" d="M212 290L213 291L212 290M314 290L315 291L314 290M330 290L331 291L330 290M377 290L378 291L377 290M392 290L393 291L392 290M11 291L12 292L11 291M52 291L53 292L52 291M209 291L210 292L209 291M312 291L313 292L312 291M375 291L376 292L375 291M389 291L390 292L389 291M5 292L6 293L5 292z"/>
<path style="fill:#ae7bc4; stroke:none;" d="M206 292L207 293L206 292z"/>
<path style="fill:#cacee2; stroke:none;" d="M207 292L208 293L207 292M309 292L310 293L309 292M325 292L326 293L325 292M372 292L373 293L372 292M387 292L388 293L387 292M12.3333 293.667L12.6667 294.333L12.3333 293.667z"/>
<path style="fill:#ae7bc4; stroke:none;" d="M53 293L54 294L53 293z"/>
<path style="fill:#cacee2; stroke:none;" d="M204 293L205 294L204 293M307 293L308 294L307 293M370 293L371 294L370 293M384.667 293.333L385.333 293.667L384.667 293.333z"/>
<path style="fill:#ae7bc4; stroke:none;" d="M201 294L202 295L201 294z"/>
<path style="fill:#cacee2; stroke:none;" d="M202 294L203 295L202 294M304 294L305 295L304 294M320 294L321 295L320 294M367 294L368 295L367 294M382 294L383 295L382 294M199 295L200 296L199 295M302 295L303 296L302 295M365 295L366 296L365 295M379.667 295.333L380.333 295.667L379.667 295.333M13 296L14 297L13 296M54 296L55 297L54 296z"/>
<path style="fill:#ae7bc4; stroke:none;" d="M196 296L197 297L196 296z"/>
<path style="fill:#cacee2; stroke:none;" d="M197 296L198 297L197 296M299 296L300 297L299 296M315 296L316 297L315 296M377 296L378 297L377 296M7 297L8 298L7 297M194 297L195 298L194 297M297 297L298 298L297 297M360 297L361 298L360 297M375 297L376 298L375 297z"/>
<path style="fill:#ae7bc4; stroke:none;" d="M55 298L56 299L55 298M191 298L192 299L191 298z"/>
<path style="fill:#cacee2; stroke:none;" d="M192 298L193 299L192 298M294 298L295 299L294 298M310 298L311 299L310 298M358 298L359 299L358 298M372 298L373 299L372 298M14 299L15 300L14 299M189 299L190 300L189 299M292 299L293 300L292 299M355 299L356 300L355 299M370 299L371 300L370 299z"/>
<path style="fill:#ae7bc4; stroke:none;" d="M186 300L187 301L186 300z"/>
<path style="fill:#cacee2; stroke:none;" d="M187 300L188 301L187 300M289 300L290 301L289 300M305 300L306 301L305 300M353 300L354 301L353 300M367.667 300.333L368.333 300.667L367.667 300.333M15 301L16 302L15 301M56 301L57 302L56 301M184 301L185 302L184 301M286.667 301.333L287.333 301.667L286.667 301.333M302 301L303 302L302 301M350 301L351 302L350 301M365 301L366 302L365 301M9 302L10 303L9 302z"/>
<path style="fill:#ae7bc4; stroke:none;" d="M181 302L182 303L181 302z"/>
<path style="fill:#cacee2; stroke:none;" d="M182 302L183 303L182 302M284 302L285 303L284 302M300 302L301 303L300 302M348 302L349 303L348 302M363 302L364 303L363 302z"/>
<path style="fill:#ae7bc4; stroke:none;" d="M57 303L58 304L57 303z"/>
<path style="fill:#cacee2; stroke:none;" d="M179 303L180 304L179 303M281.667 303.333L282.333 303.667L281.667 303.333M297 303L298 304L297 303M346 303L347 304L346 303M360 303L361 304L360 303M16 304L17 305L16 304z"/>
<path style="fill:#ae7bc4; stroke:none;" d="M176 304L177 305L176 304z"/>
<path style="fill:#cacee2; stroke:none;" d="M177 304L178 305L177 304M279 304L280 305L279 304M295 304L296 305L295 304M343 304L344 305L343 304M358 304L359 305L358 304M174 305L175 306L174 305M276 305L277 306L276 305M292 305L293 306L292 305M341 305L342 306L341 305M355 305L356 306L355 305M17 306L18 307L17 306M58 306L59 307L58 306z"/>
<path style="fill:#ae7bc4; stroke:none;" d="M171 306L172 307L171 306z"/>
<path style="fill:#cacee2; stroke:none;" d="M172 306L173 307L172 306M274 306L275 307L274 306M290 306L291 307L290 306M338 306L339 307L338 306M353 306L354 307L353 306M11 307L12 308L11 307M169 307L170 308L169 307M271 307L272 308L271 307M287 307L288 308L287 307M336 307L337 308L336 307M350.667 307.333L351.333 307.667L350.667 307.333z"/>
<path style="fill:#ae7bc4; stroke:none;" d="M59 308L60 309L59 308M166 308L167 309L166 308z"/>
<path style="fill:#cacee2; stroke:none;" d="M167 308L168 309L167 308M269 308L270 309L269 308M285 308L286 309L285 308M333 308L334 309L333 308M348 308L349 309L348 308M18 309L19 310L18 309M164 309L165 310L164 309M266 309L267 310L266 309M282 309L283 310L282 309M331 309L332 310L331 309M346 309L347 310L346 309z"/>
<path style="fill:#ae7bc4; stroke:none;" d="M161 310L162 311L161 310z"/>
<path style="fill:#cacee2; stroke:none;" d="M162 310L163 311L162 310M264 310L265 311L264 310M280 310L281 311L280 310M329 310L330 311L329 310M343 310L344 311L343 310M19 311L20 312L19 311M60 311L61 312L60 311M159 311L160 312L159 311M261 311L262 312L261 311M277 311L278 312L277 311M326 311L327 312L326 311M341 311L342 312L341 311M13 312L14 313L13 312z"/>
<path style="fill:#ae7bc4; stroke:none;" d="M156 312L157 313L156 312z"/>
<path style="fill:#cacee2; stroke:none;" d="M157 312L158 313L157 312M259 312L260 313L259 312M275 312L276 313L275 312M324 312L325 313L324 312M338.667 312.333L339.333 312.667L338.667 312.333z"/>
<path style="fill:#ae7bc4; stroke:none;" d="M61 313L62 314L61 313z"/>
<path style="fill:#cacee2; stroke:none;" d="M154 313L155 314L154 313M256 313L257 314L256 313M272 313L273 314L272 313M321 313L322 314L321 313M336 313L337 314L336 313M20 314L21 315L20 314z"/>
<path style="fill:#ae7bc4; stroke:none;" d="M151 314L152 315L151 314z"/>
<path style="fill:#cacee2; stroke:none;" d="M152 314L153 315L152 314M253 314L254 315L253 314M270 314L271 315L270 314M319 314L320 315L319 314M333.667 314.333L334.333 314.667L333.667 314.333M149 315L150 316L149 315M251 315L252 316L251 315M267 315L268 316L267 315M316 315L317 316L316 315M331 315L332 316L331 315M21 316L22 317L21 316M62 316L63 317L62 316z"/>
<path style="fill:#ae7bc4; stroke:none;" d="M146 316L147 317L146 316z"/>
<path style="fill:#cacee2; stroke:none;" d="M147 316L148 317L147 316M248 316L249 317L248 316M265 316L266 317L265 316M314 316L315 317L314 316M329 316L330 317L329 316M15 317L16 318L15 317M144 317L145 318L144 317M246 317L247 318L246 317M262 317L263 318L262 317M312 317L313 318L312 317M326 317L327 318L326 317z"/>
<path style="fill:#ae7bc4; stroke:none;" d="M63 318L64 319L63 318z"/>
<path style="fill:#cacee2; stroke:none;" d="M141.667 318.333L142.333 318.667L141.667 318.333M243 318L244 319L243 318M260 318L261 319L260 318M309 318L310 319L309 318M324 318L325 319L324 318M22 319L23 320L22 319z"/>
<path style="fill:#ae7bc4; stroke:none;" d="M138 319L139 320L138 319z"/>
<path style="fill:#cacee2; stroke:none;" d="M139 319L140 320L139 319M241 319L242 320L241 319M257 319L258 320L257 319M307 319L308 320L307 319M321.667 319.333L322.333 319.667L321.667 319.333M136 320L137 321L136 320M238 320L239 321L238 320M255 320L256 321L255 320M304 320L305 321L304 320M319 320L320 321L319 320M23 321L24 322L23 321M64 321L65 322L64 321z"/>
<path style="fill:#ae7bc4; stroke:none;" d="M133 321L134 322L133 321z"/>
<path style="fill:#cacee2; stroke:none;" d="M134 321L135 322L134 321M236 321L237 322L236 321M252 321L253 322L252 321M302 321L303 322L302 321M316.667 321.333L317.333 321.667L316.667 321.333M17 322L18 323L17 322M131 322L132 323L131 322M233 322L234 323L233 322M299 322L300 323L299 322M314 322L315 323L314 322z"/>
<path style="fill:#ae7bc4; stroke:none;" d="M65 323L66 324L65 323M128 323L129 324L128 323z"/>
<path style="fill:#cacee2; stroke:none;" d="M129 323L130 324L129 323M231 323L232 324L231 323M247 323L248 324L247 323M297 323L298 324L297 323M312 323L313 324L312 323M24 324L25 325L24 324M126 324L127 325L126 324M228 324L229 325L228 324M295 324L296 325L295 324M309 324L310 325L309 324M66 325L67 326L66 325z"/>
<path style="fill:#ae7bc4; stroke:none;" d="M123 325L124 326L123 325z"/>
<path style="fill:#cacee2; stroke:none;" d="M124 325L125 326L124 325M226 325L227 326L226 325M242 325L243 326L242 325M292 325L293 326L292 325M307 325L308 326L307 325M25 326L26 327L25 326z"/>
<path style="fill:#ae7bc4; stroke:none;" d="M67 326L68 327L67 326z"/>
<path style="fill:#cacee2; stroke:none;" d="M121 326L122 327L121 326M223 326L224 327L223 326M290 326L291 327L290 326M304.667 326.333L305.333 326.667L304.667 326.333M19 327L20 328L19 327z"/>
<path style="fill:#ae7bc4; stroke:none;" d="M118 327L119 328L118 327z"/>
<path style="fill:#cacee2; stroke:none;" d="M119 327L120 328L119 327M221 327L222 328L221 327M237 327L238 328L237 327M287 327L288 328L287 327M302 327L303 328L302 327M68 328L69 329L68 328M116 328L117 329L116 328M218 328L219 329L218 328M285 328L286 329L285 328M300 328L301 329L300 328M26 329L27 330L26 329M69 329L70 330L69 329z"/>
<path style="fill:#ae7bc4; stroke:none;" d="M113 329L114 330L113 329z"/>
<path style="fill:#cacee2; stroke:none;" d="M114 329L115 330L114 329M216 329L217 330L216 329M232 329L233 330L232 329M297 329L298 330L297 329M70 330L71 331L70 330M111 330L112 331L111 330M213 330L214 331L213 330M280 330L281 331L280 330M295 330L296 331L295 330M27 331L28 332L27 331M71 331L72 332L71 331z"/>
<path style="fill:#ae7bc4; stroke:none;" d="M108 331L109 332L108 331z"/>
<path style="fill:#cacee2; stroke:none;" d="M109 331L110 332L109 331M211 331L212 332L211 331M227 331L228 332L227 331M278 331L279 332L278 331M292 331L293 332L292 331M21 332L22 333L21 332z"/>
<path style="fill:#ae7bc4; stroke:none;" d="M73 332L74 333L73 332z"/>
<path style="fill:#cacee2; stroke:none;" d="M106 332L107 333L106 332M208 332L209 333L208 332M275 332L276 333L275 332M290 332L291 333L290 332M74 333L75 334L74 333z"/>
<path style="fill:#ae7bc4; stroke:none;" d="M103 333L104 334L103 333z"/>
<path style="fill:#cacee2; stroke:none;" d="M104 333L105 334L104 333M206 333L207 334L206 333M222 333L223 334L222 333M273 333L274 334L273 333M287.667 333.333L288.333 333.667L287.667 333.333M28 334L29 335L28 334z"/>
<path style="fill:#ae7bc4; stroke:none;" d="M76 334L77 335L76 334z"/>
<path style="fill:#cacee2; stroke:none;" d="M101 334L102 335L101 334M203 334L204 335L203 334M219 334L220 335L219 334M270 334L271 335L270 334M285 334L286 335L285 334M77 335L78 336L77 335z"/>
<path style="fill:#ae7bc4; stroke:none;" d="M78 335L79 336L78 335M98 335L99 336L98 335z"/>
<path style="fill:#cacee2; stroke:none;" d="M99 335L100 336L99 335M201 335L202 336L201 335M217 335L218 336L217 335M268 335L269 336L268 335M283 335L284 336L283 335M29 336L30 337L29 336M80 336L81 337L80 336M96 336L97 337L96 336M198 336L199 337L198 336M214 336L215 337L214 336M266 336L267 337L266 336M280 336L281 337L280 336M23 337L24 338L23 337M83.6667 337.333L84.3333 337.667L83.6667 337.333z"/>
<path style="fill:#ae7bc4; stroke:none;" d="M85.6667 337.333L86.3333 337.667L85.6667 337.333M93 337L94 338L93 337z"/>
<path style="fill:#cacee2; stroke:none;" d="M94 337L95 338L94 337M196 337L197 338L196 337M212 337L213 338L212 337M263 337L264 338L263 337M278 337L279 338L278 337M193 338L194 339L193 338M209 338L210 339L209 338M261 338L262 339L261 338M275.667 338.333L276.333 338.667L275.667 338.333M30 339L31 340L30 339M191 339L192 340L191 339M207 339L208 340L207 339M258 339L259 340L258 339M273 339L274 340L273 339M188 340L189 341L188 340M204 340L205 341L204 340M256 340L257 341L256 340M270.667 340.333L271.333 340.667L270.667 340.333M31 341L32 342L31 341M186 341L187 342L186 341M202 341L203 342L202 341M254 341L255 342L254 341M268 341L269 342L268 341M25 342L26 343L25 342M183 342L184 343L183 342M199 342L200 343L199 342M251 342L252 343L251 342M266 342L267 343L266 342M181 343L182 344L181 343M197 343L198 344L197 343M249 343L250 344L249 343M263 343L264 344L263 343M32 344L33 345L32 344M178 344L179 345L178 344M194 344L195 345L194 344M246 344L247 345L246 344M261 344L262 345L261 344M26 345L27 346L26 345M176 345L177 346L176 345M192 345L193 346L192 345M244 345L245 346L244 345M258.667 345.333L259.333 345.667L258.667 345.333M33 346L34 347L33 346M173 346L174 347L173 346M189 346L190 347L189 346M241 346L242 347L241 346M256 346L257 347L256 346M27 347L28 348L27 347M171 347L172 348L171 347M187 347L188 348L187 347M239 347L240 348L239 347M253 347L254 348L253 347M168 348L169 349L168 348M184 348L185 349L184 348M237 348L238 349L237 348M251 348L252 349L251 348M34 349L35 350L34 349M166 349L167 350L166 349M182 349L183 350L182 349M234 349L235 350L234 349M248.667 349.333L249.333 349.667L248.667 349.333M28 350L29 351L28 350M163 350L164 351L163 350M179 350L180 351L179 350M232 350L233 351L232 350M246 350L247 351L246 350M35.3333 351.667L35.6667 352.333L35.3333 351.667M161 351L162 352L161 351M177 351L178 352L177 351M229 351L230 352L229 351M243.667 351.333L244.333 351.667L243.667 351.333M29 352L30 353L29 352M158 352L159 353L158 352M174 352L175 353L174 352M227 352L228 353L227 352M241 352L242 353L241 352M156 353L157 354L156 353M172 353L173 354L172 353M239 353L240 354L239 353M36 354L37 355L36 354M153 354L154 355L153 354M169 354L170 355L169 354M222 354L223 355L222 354M236.667 354.333L237.333 354.667L236.667 354.333M30 355L31 356L30 355M151 355L152 356L151 355M167 355L168 356L167 355M220 355L221 356L220 355M234 355L235 356L234 355M37.3333 356.667L37.6667 357.333L37.3333 356.667M148 356L149 357L148 356M164 356L165 357L164 356M217 356L218 357L217 356M231.667 356.333L232.333 356.667L231.667 356.333M31 357L32 358L31 357M146 357L147 358L146 357M162 357L163 358L162 357M215 357L216 358L215 357M229 357L230 358L229 357M143 358L144 359L143 358M159 358L160 359L159 358M212 358L213 359L212 358M226.667 358.333L227.333 358.667L226.667 358.333M38 359L39 360L38 359M140.667 359.333L141.333 359.667L140.667 359.333M210 359L211 360L210 359M224 359L225 360L224 359M32 360L33 361L32 360M138 360L139 361L138 360M154 360L155 361L154 360M208 360L209 361L208 360M222 360L223 361L222 360M135.667 361.333L136.333 361.667L135.667 361.333M205 361L206 362L205 361M219.667 361.333L220.333 361.667L219.667 361.333M33 362L34 363L33 362M39 362L40 363L39 362M133 362L134 363L133 362M149 362L150 363L149 362M203 362L204 363L203 362M217 362L218 363L217 362M130 363L131 364L130 363M200 363L201 364L200 363M214.667 363.333L215.333 363.667L214.667 363.333M40 364L41 365L40 364M128 364L129 365L128 364M144 364L145 365L144 364M198 364L199 365L198 364M212 364L213 365L212 364M34 365L35 366L34 365M125 365L126 366L125 365M195 365L196 366L195 365M210 365L211 366L210 365M123 366L124 367L123 366M139 366L140 367L139 366M193 366L194 367L193 366M207.667 366.333L208.333 366.667L207.667 366.333M35 367L36 368L35 367M41 367L42 368L41 367M120 367L121 368L120 367M191 367L192 368L191 367M205 367L206 368L205 367M118 368L119 369L118 368M134 368L135 369L134 368M188 368L189 369L188 368M202.667 368.333L203.333 368.667L202.667 368.333M42 369L43 370L42 369M115 369L116 370L115 369M186 369L187 370L186 369M200 369L201 370L200 369M36 370L37 371L36 370M113 370L114 371L113 370M129 370L130 371L129 370M183 370L184 371L183 370M197.667 370.333L198.333 370.667L197.667 370.333M110 371L111 372L110 371M126 371L127 372L126 371M181 371L182 372L181 371M195 371L196 372L195 371M43 372L44 373L43 372M108 372L109 373L108 372M124 372L125 373L124 372M178.667 372.333L179.333 372.667L178.667 372.333M193 372L194 373L193 372M105 373L106 374L105 373M121 373L122 374L121 373M176 373L177 374L176 373M190.667 373.333L191.333 373.667L190.667 373.333M44 374L45 375L44 374M103 374L104 375L103 374M119 374L120 375L119 374M174 374L175 375L174 374M188 374L189 375L188 374M38 375L39 376L38 375M100 375L101 376L100 375M116 375L117 376L116 375M171 375L172 376L171 375M185.667 375.333L186.333 375.667L185.667 375.333M45 376L46 377L45 376M98 376L99 377L98 376M114 376L115 377L114 376M169 376L170 377L169 376M183 376L184 377L183 376M39 377L40 378L39 377M95 377L96 378L95 377M111 377L112 378L111 377M166 377L167 378L166 377M181 377L182 378L181 377M46 378L47 379L46 378M93 378L94 379L93 378M109 378L110 379L109 378M165 378L166 379L165 378M178.667 378.333L179.333 378.667L178.667 378.333M47 379L48 380L47 379M90 379L91 380L90 379M106 379L107 380L106 379M176 379L177 380L176 379M88 380L89 381L88 380M104 380L105 381L104 380M173.667 380.333L174.333 380.667L173.667 380.333M85 381L86 382L85 381M101 381L102 382L101 381M165 381L166 382L165 381M171 381L172 382L171 381M83 382L84 383L83 382M99 382L100 383L99 382M168.667 382.333L169.333 382.667L168.667 382.333M42 383L43 384L42 383M80 383L81 384L80 383M96 383L97 384L96 383M43 384L44 385L43 384M52 384L53 385L52 384M78 384L79 385L78 384M94 384L95 385L94 384M44 385L45 386L44 385M54 385L55 386L54 385M75 385L76 386L75 385M91 385L92 386L91 385M45 386L46 387L45 386M56 386L57 387L56 386M73 386L74 387L73 386M89 386L90 387L89 386M46 387L47 388L46 387M59 387L60 388L59 387M69.6667 387.333L70.3333 387.667L69.6667 387.333M86 387L87 388L86 387M47 388L48 389L47 388M84 388L85 389L84 388M81 389L82 390L81 389M50 390L51 391L50 390M79 390L80 391L79 390M52 391L53 392L52 391M76 391L77 392L76 391M55 392L56 393L55 392M74 392L75 393L74 392M58.6667 393.333L59.3333 393.667L58.6667 393.333M71 393L72 394L71 393M64 394L65 395L64 394M649 416L650 417L649 416z"/>
<path style="fill:#5a7ea4; stroke:none;" d="M650.667 416.333L651.333 416.667L650.667 416.333z"/>
<path style="fill:#1796d1; stroke:none;" d="M652 416.479C639.216 419.123 637.418 449.91 644.653 458.786C650.339 465.764 671.862 464.485 679.999 462.606C692.145 459.801 692.936 428.549 686.146 420.343C680.272 413.245 660.216 414.78 652 416.479z"/>
<path style="fill:#5a7ea4; stroke:none;" d="M679.667 416.333L680.333 416.667L679.667 416.333z"/>
<path style="fill:#cacee2; stroke:none;" d="M681 416L682 417L681 416M647 417L648 418L647 417M683 417L684 418L683 417M645 418L646 419L645 418z"/>
<path style="fill:#5a7ea4; stroke:none;" d="M646 418L647 419L646 418M651 418L652 419L651 418z"/>
<path style="fill:#cacee2; stroke:none;" d="M652 418L652 419L679 419L652 418z"/>
<path style="fill:#5a7ea4; stroke:none;" d="M679 418L680 419L679 418M684 418L685 419L684 418z"/>
<path style="fill:#cacee2; stroke:none;" d="M685 418L686 419L685 418M644 419L645 420L644 419z"/>
<path style="fill:#5a7ea4; stroke:none;" d="M648 419L649 420L648 419z"/>
<path style="fill:#cacee2; stroke:none;" d="M649 419L650 420L649 419z"/>
<path style="fill:#010101; stroke:none;" d="M650.019 419.742C642.612 422.7 642.196 450.957 646.603 456.852C650.768 462.422 674.79 461.782 680.981 459.397C688.512 456.494 688.687 428.089 684.258 422.228C679.952 416.531 656.284 417.241 650.019 419.742z"/>
<path style="fill:#cacee2; stroke:none;" d="M681 419L682 420L681 419z"/>
<path style="fill:#5a7ea4; stroke:none;" d="M682 419L683 420L682 419z"/>
<path style="fill:#cacee2; stroke:none;" d="M686 419L687 420L686 419M647 420L648 421L647 420M683 420L684 421L683 420z"/>
<path style="fill:#5a7ea4; stroke:none;" d="M686 420L687 421L686 420M643 421L644 422L643 421z"/>
<path style="fill:#cacee2; stroke:none;" d="M646 421L647 422L646 421M684 421L685 422L684 421z"/>
<path style="fill:#5a7ea4; stroke:none;" d="M687 421L688 422L687 421M645 422L646 423L645 422M685 422L686 423L685 422z"/>
<path style="fill:#cacee2; stroke:none;" d="M642 423L643 424L642 423M685 423L686 424L685 423M688 423L689 424L688 423z"/>
<path style="fill:#5a7ea4; stroke:none;" d="M642 424L643 425L642 424M644 424L645 425L644 424M686 424L687 425L686 424M688 424L689 425L688 424z"/>
<path style="fill:#cacee2; stroke:none;" d="M644 425L644 454L645 454L644 425M686 425L686 454L687 454L686 425M641 426L641 453L642 453L641 426M689 426L689 453L690 453L689 426M798 428L799 429L798 428z"/>
<path style="fill:#1796d1; stroke:none;" d="M799 428C795.481 430.705 792.033 433.598 790.653 438C789.034 443.162 790 449.645 790 455C790 468.737 785.555 488.485 800 496C797.915 492.071 794.029 489.382 792.653 485C789.15 473.845 790.39 452.556 792.214 441C793.023 435.872 799.109 432.642 799 428z"/>
<path style="fill:#cacee2; stroke:none;" d="M796 429L797 430L796 429z"/>
<path style="fill:#5a7ea4; stroke:none;" d="M795 430L796 431L795 430M799 430L800 431L799 430M794 431L795 432L794 431z"/>
<path style="fill:#cacee2; stroke:none;" d="M798 431L799 432L798 431z"/>
<path style="fill:#010101; stroke:none;" d="M799 431C796.002 433.51 793.583 436.098 792.558 440C791.398 444.415 792 449.475 792 454C792 465.862 787.636 486.428 800 493L800 451L799 431z"/>
<path style="fill:#5a7ea4; stroke:none;" d="M793 432L794 433L793 432M796 432L797 433L796 432z"/>
<path style="fill:#cacee2; stroke:none;" d="M792 433L793 434L792 433z"/>
<path style="fill:#5a7ea4; stroke:none;" d="M795 433L796 434L795 433z"/>
<path style="fill:#cacee2; stroke:none;" d="M791 434L792 435L791 434z"/>
<path style="fill:#5a7ea4; stroke:none;" d="M794 434L795 435L794 434M791 435L792 436L791 435z"/>
<path style="fill:#cacee2; stroke:none;" d="M794 435L795 436L794 435M790 436L791 437L790 436M793 436L794 437L793 436z"/>
<path style="fill:#5a7ea4; stroke:none;" d="M790 437L791 438L790 437M792 438L793 439L792 438z"/>
<path style="fill:#cacee2; stroke:none;" d="M789 439L789 442L790 442L789 439M792 439L793 440L792 439z"/>
<path style="fill:#5a7ea4; stroke:none;" d="M789 442L789 482L790 482C790 470.566 793.411 452.512 789 442M644 454L645 455L644 454M686 454L687 455L686 454M642 455L643 456L642 455M688 455L689 456L688 455z"/>
<path style="fill:#cacee2; stroke:none;" d="M642 456L643 457L642 456M645 456L646 457L645 456M685 456L686 457L685 456M688 456L689 457L688 456z"/>
<path style="fill:#5a7ea4; stroke:none;" d="M643 457L644 458L643 457z"/>
<path style="fill:#cacee2; stroke:none;" d="M646 457L647 458L646 457M684 457L685 458L684 457z"/>
<path style="fill:#5a7ea4; stroke:none;" d="M687 457L688 458L687 457z"/>
<path style="fill:#cacee2; stroke:none;" d="M643 458L644 459L643 458M647 458L648 459L647 458M683 458L684 459L683 458M687 458L688 459L687 458M644 459L645 460L644 459M648 459L649 460L648 459M682 459L683 460L682 459M686 459L687 460L686 459M645 460L646 461L645 460z"/>
<path style="fill:#5a7ea4; stroke:none;" d="M649.667 460.333L650.333 460.667L649.667 460.333z"/>
<path style="fill:#cacee2; stroke:none;" d="M651 460L651 461L680 461L651 460z"/>
<path style="fill:#5a7ea4; stroke:none;" d="M680.667 460.333L681.333 460.667L680.667 460.333z"/>
<path style="fill:#cacee2; stroke:none;" d="M685 460L686 461L685 460M646 461L647 462L646 461z"/>
<path style="fill:#5a7ea4; stroke:none;" d="M647 461L648 462L647 461M683 461L684 462L683 461z"/>
<path style="fill:#cacee2; stroke:none;" d="M684 461L685 462L684 461M648 462L649 463L648 462z"/>
<path style="fill:#5a7ea4; stroke:none;" d="M649 462L650 463L649 462M681 462L682 463L681 462z"/>
<path style="fill:#cacee2; stroke:none;" d="M682 462L683 463L682 462M651 463L651 464L680 464L651 463M789 482L789 485L790 485L789 482M792 484L793 485L792 484z"/>
<path style="fill:#5a7ea4; stroke:none;" d="M792 485L793 486L792 485M790 486L791 487L790 486z"/>
<path style="fill:#cacee2; stroke:none;" d="M790 487L791 488L790 487M793 487L794 488L793 487z"/>
<path style="fill:#5a7ea4; stroke:none;" d="M791 488L792 489L791 488z"/>
<path style="fill:#cacee2; stroke:none;" d="M791 489L792 490L791 489z"/>
<path style="fill:#5a7ea4; stroke:none;" d="M794 489L795 490L794 489M792 490L793 491L792 490M795 490L796 491L795 490M793 491L794 492L793 491M796 491L797 492L796 491M794 492L795 493L794 492M797 492L798 493L797 492z"/>
<path style="fill:#cacee2; stroke:none;" d="M798 492L799 493L798 492z"/>
<path style="fill:#5a7ea4; stroke:none;" d="M795 493L796 494L795 493M799 493L800 494L799 493z"/>
<path style="fill:#cacee2; stroke:none;" d="M796 494L797 495L796 494M797 495L798 496L797 495z"/>
<path style="fill:#5a7ea4; stroke:none;" d="M798 495L799 496L798 495z"/>
<path style="fill:#cacee2; stroke:none;" d="M646 509L646 510L666 510L646 509M643 510L641 513L643 510z"/>
<path style="fill:#5a7ea4; stroke:none;" d="M644 510L645 511L644 510z"/>
<path style="fill:#1796d1; stroke:none;" d="M645.108 510.742C637.745 513.892 637.939 533.337 642.703 538.566C646.455 542.685 662.019 542.342 666.892 540.258C673.903 537.259 674.081 518.64 670.142 513.228C666.532 508.268 650.358 508.497 645.108 510.742z"/>
<path style="fill:#5a7ea4; stroke:none;" d="M667 510L668 511L667 510z"/>
<path style="fill:#cacee2; stroke:none;" d="M668 510L669 511L668 510M709 510L710 511L709 510z"/>
<path style="fill:#5a7ea4; stroke:none;" d="M710.667 510.333L711.333 510.667L710.667 510.333z"/>
<path style="fill:#1796d1; stroke:none;" d="M712 510.468C688.675 514.868 695 545.544 695 563C695 571.429 693.885 580.866 699.558 587.907C703.123 592.332 708.442 594.5 714 594.91C729.322 596.04 748.909 597.385 764 594.532C786.648 590.251 780 557.757 780 541C780 533.166 781.124 524.736 776.2 518.04C766.722 505.151 741.945 510 728 510C722.749 510 717.182 509.49 712 510.468z"/>
<path style="fill:#5a7ea4; stroke:none;" d="M763.667 510.333L764.333 510.667L763.667 510.333z"/>
<path style="fill:#cacee2; stroke:none;" d="M765 510L766 511L765 510M669 511L670 512L669 511M706 511L707 512L706 511z"/>
<path style="fill:#5a7ea4; stroke:none;" d="M707 511L708 512L707 511M767 511L768 512L767 511z"/>
<path style="fill:#cacee2; stroke:none;" d="M768 511L769 512L768 511z"/>
<path style="fill:#5a7ea4; stroke:none;" d="M645 512L646 513L645 512z"/>
<path style="fill:#cacee2; stroke:none;" d="M646 512L647 513L646 512z"/>
<path style="fill:#010101; stroke:none;" d="M647.059 512.742C641.631 515.013 640.637 532.43 644.603 536.397C647.722 539.515 661.976 539.089 665.852 537.397C670.8 535.236 670.577 518.093 667.397 514.434C664.035 510.565 651.471 510.896 647.059 512.742z"/>
<path style="fill:#cacee2; stroke:none;" d="M665 512L666 513L665 512z"/>
<path style="fill:#5a7ea4; stroke:none;" d="M666 512L667 513L666 512z"/>
<path style="fill:#cacee2; stroke:none;" d="M670 512L671 513L670 512M704 512L705 513L704 512z"/>
<path style="fill:#5a7ea4; stroke:none;" d="M705 512L706 513L705 512M711.667 512.333L712.333 512.667L711.667 512.333z"/>
<path style="fill:#cacee2; stroke:none;" d="M713 512L713 513L763 513C750.11 507.591 727.049 512 713 512z"/>
<path style="fill:#5a7ea4; stroke:none;" d="M763 512L764 513L763 512z"/>
<path style="fill:#cacee2; stroke:none;" d="M770 512L771 513L770 512z"/>
<path style="fill:#5a7ea4; stroke:none;" d="M641 513L642 514L641 513z"/>
<path style="fill:#cacee2; stroke:none;" d="M644 513L645 514L644 513M667 513L668 514L667 513z"/>
<path style="fill:#5a7ea4; stroke:none;" d="M703 513L704 514L703 513M708 513L709 514L708 513z"/>
<path style="fill:#cacee2; stroke:none;" d="M709 513L710 514L709 513z"/>
<path style="fill:#010101; stroke:none;" d="M710 513.533C704.738 514.812 700.427 518.826 698.804 524C694.822 536.696 698 554.726 698 568C698 573.718 697.306 580.005 700.703 584.985C709.199 597.44 736.744 592 750 592C755.062 592 761.117 592.878 766 591.347C770.675 589.882 775.066 585.745 776.427 581C780.192 567.881 777 549.641 777 536C777 530.011 777.648 523.988 773.606 519.043C769.108 513.541 763.62 513.003 757 513C742.388 512.994 724.205 510.08 710 513.533z"/>
<path style="fill:#cacee2; stroke:none;" d="M766 513L767 514L766 513z"/>
<path style="fill:#5a7ea4; stroke:none;" d="M767 513L768 514L767 513M771 513L772 514L771 513z"/>
<path style="fill:#cacee2; stroke:none;" d="M772 513L773 514L772 513M640 514L641 515L640 514M643 514L644 515L643 514M668 514L669 515L668 514M671 514L672 515L671 514M701 514L702 515L701 514M706 514L707 515L706 514M768 514L769 515L768 514M773 514L774 515L773 514z"/>
<path style="fill:#5a7ea4; stroke:none;" d="M640.333 515.667L640.667 516.333L640.333 515.667M669.333 515.667L669.667 516.333L669.333 515.667M671 515L672 516L671 515z"/>
<path style="fill:#cacee2; stroke:none;" d="M700 515L701 516L700 515z"/>
<path style="fill:#5a7ea4; stroke:none;" d="M704 515L705 516L704 515z"/>
<path style="fill:#cacee2; stroke:none;" d="M770 515L771 516L770 515M774 515L775 516L774 515z"/>
<path style="fill:#5a7ea4; stroke:none;" d="M642 516L643 517L642 516z"/>
<path style="fill:#cacee2; stroke:none;" d="M699 516L700 517L699 516M703 516L704 517L703 516M771 516L772 517L771 516M775 516L776 517L775 516M642 517L642 534L643 534L642 517M669 517L669 534L670 534L669 517M702 517L703 518L702 517M772 517L773 518L772 517M776 517L777 518L776 517z"/>
<path style="fill:#5a7ea4; stroke:none;" d="M698 518L699 519L698 518z"/>
<path style="fill:#cacee2; stroke:none;" d="M701 518L702 519L701 518M773 518L774 519L773 518z"/>
<path style="fill:#5a7ea4; stroke:none;" d="M776 518L777 519L776 518z"/>
<path style="fill:#cacee2; stroke:none;" d="M697 519L698 520L697 519z"/>
<path style="fill:#5a7ea4; stroke:none;" d="M700 519L701 520L700 519z"/>
<path style="fill:#cacee2; stroke:none;" d="M774 519L775 520L774 519M777 519L778 520L777 519z"/>
<path style="fill:#5a7ea4; stroke:none;" d="M775 520L776 521L775 520z"/>
<path style="fill:#cacee2; stroke:none;" d="M696 521L697 522L696 521M699 521L700 522L699 521M775 521L776 522L775 521z"/>
<path style="fill:#5a7ea4; stroke:none;" d="M778 521L779 522L778 521M696 522L697 523L696 522M698 522L699 523L698 522M776 522L777 523L776 522z"/>
<path style="fill:#cacee2; stroke:none;" d="M695.333 523.667L695.667 524.333L695.333 523.667M698.333 523.667L698.667 524.333L698.333 523.667M776 523L777 524L776 523M779 523L780 524L779 523z"/>
<path style="fill:#5a7ea4; stroke:none;" d="M779 524L780 525L779 524M695 525L696 526L695 525M697.333 525.667L697.667 526.333L697.333 525.667M777 525L778 526L777 525z"/>
<path style="fill:#cacee2; stroke:none;" d="M777 526L777 579L778 579L778 543L777 526M697 527L697 578L698 578C698 563.689 702.508 540.127 697 527M780 527L780 578L781 578C781 563.689 785.508 540.127 780 527M694 529L694 576L695 576C695 562.735 699.11 541.176 694 529M547 533L547 534L566 534L547 533M544 534L545 535L544 534z"/>
<path style="fill:#5a7ea4; stroke:none;" d="M545 534L546 535L545 534z"/>
<path style="fill:#1796d1; stroke:none;" d="M546.019 534.742C539.266 537.439 538.355 557.409 542.742 562.566C546.284 566.73 562.172 566.278 566.956 564.397C573.914 561.66 574.264 542.529 570.258 537.228C566.522 532.285 551.349 532.614 546.019 534.742z"/>
<path style="fill:#5a7ea4; stroke:none;" d="M567 534L568 535L567 534M640.333 534.667L640.667 535.333L640.333 534.667M642 534L643 535L642 534M669 534L670 535L669 534M671.333 534.667L671.667 535.333L671.333 534.667M543 535L544 536L543 535z"/>
<path style="fill:#cacee2; stroke:none;" d="M569 535L570 536L569 535z"/>
<path style="fill:#5a7ea4; stroke:none;" d="M542 536L543 537L542 536z"/>
<path style="fill:#cacee2; stroke:none;" d="M546 536L546 537L566 537L546 536z"/>
<path style="fill:#5a7ea4; stroke:none;" d="M566 536L567 537L566 536z"/>
<path style="fill:#cacee2; stroke:none;" d="M570 536L571 537L570 536M640 536L641 537L640 536M643 536L644 537L643 536M668 536L669 537L668 536M671 536L672 537L671 536M541 537L542 538L541 537z"/>
<path style="fill:#5a7ea4; stroke:none;" d="M544 537L543 539L544 537z"/>
<path style="fill:#010101; stroke:none;" d="M545.434 538.028C542.198 540.254 543.001 545.627 543 549C542.999 552.59 542.225 557.607 544.742 560.566C548 564.396 562.647 564.514 566.682 561.821C570.113 559.531 569 553.522 569 550C569 546.844 569.821 542.088 567.972 539.318C565.409 535.477 549.023 535.558 545.434 538.028z"/>
<path style="fill:#cacee2; stroke:none;" d="M567 537L568 538L567 537z"/>
<path style="fill:#5a7ea4; stroke:none;" d="M641 537L642 538L641 537z"/>
<path style="fill:#cacee2; stroke:none;" d="M644 537L645 538L644 537M667 537L668 538L667 537z"/>
<path style="fill:#5a7ea4; stroke:none;" d="M670 537L671 538L670 537z"/>
<path style="fill:#cacee2; stroke:none;" d="M568 538L569 539L568 538z"/>
<path style="fill:#5a7ea4; stroke:none;" d="M571 538L572 539L571 538z"/>
<path style="fill:#cacee2; stroke:none;" d="M641 538L642 539L641 538z"/>
<path style="fill:#5a7ea4; stroke:none;" d="M645 538L646 539L645 538z"/>
<path style="fill:#cacee2; stroke:none;" d="M646 538L646 539L666 539L646 538z"/>
<path style="fill:#5a7ea4; stroke:none;" d="M666 538L667 539L666 538z"/>
<path style="fill:#cacee2; stroke:none;" d="M670 538L671 539L670 538M540 539L540 560L541 560L540 539M543 539L544 540L543 539z"/>
<path style="fill:#5a7ea4; stroke:none;" d="M569 539L570 540L569 539z"/>
<path style="fill:#cacee2; stroke:none;" d="M642 539L643 540L642 539M669 539L670 540L669 539M569 540L569 560L570 560L569 540M572 540L572 559L573 559L572 540z"/>
<path style="fill:#5a7ea4; stroke:none;" d="M644 540L645 541L644 540M667 540L668 541L667 540z"/>
<path style="fill:#cacee2; stroke:none;" d="M646 541L646 542L666 542L646 541M543 559L544 560L543 559z"/>
<path style="fill:#5a7ea4; stroke:none;" d="M543 560L544 561L543 560M571 560L572 561L571 560M541 561L542 562L541 561z"/>
<path style="fill:#cacee2; stroke:none;" d="M544 561L545 562L544 561z"/>
<path style="fill:#5a7ea4; stroke:none;" d="M568 561L569 562L568 561z"/>
<path style="fill:#cacee2; stroke:none;" d="M571 561L572 562L571 561z"/>
<path style="fill:#5a7ea4; stroke:none;" d="M545 562L546 563L545 562z"/>
<path style="fill:#cacee2; stroke:none;" d="M546 562L547 563L546 562M566 562L567 563L566 562z"/>
<path style="fill:#5a7ea4; stroke:none;" d="M567 562L568 563L567 562M570 562L571 563L570 562z"/>
<path style="fill:#cacee2; stroke:none;" d="M542 563L543 564L542 563z"/>
<path style="fill:#5a7ea4; stroke:none;" d="M569 563L570 564L569 563M544 564L545 565L544 564z"/>
<path style="fill:#cacee2; stroke:none;" d="M568 564L569 565L568 564M546 565L546 566L567 566L546 565z"/>
<path style="fill:#5a7ea4; stroke:none;" d="M697.333 578.667L697.667 579.333L697.333 578.667M695 579L696 580L695 579M777 579L778 580L777 579z"/>
<path style="fill:#cacee2; stroke:none;" d="M604 580L604 581L634 581L604 580M695.333 580.667L695.667 581.333L695.333 580.667M698.333 580.667L698.667 581.333L698.333 580.667z"/>
<path style="fill:#5a7ea4; stroke:none;" d="M779 580L780 581L779 580z"/>
<path style="fill:#cacee2; stroke:none;" d="M601 581L602 582L601 581z"/>
<path style="fill:#5a7ea4; stroke:none;" d="M602 581L603 582L602 581z"/>
<path style="fill:#1796d1; stroke:none;" d="M596 600L597 600C597.011 583.036 606.665 583 621 583C626.376 583 633.58 581.741 637.566 586.228C640.825 589.897 640 595.464 640 600L642 600C642 594.67 642.977 588.357 638.772 584.279C632.735 578.424 604.388 578.113 598.573 584.394C594.869 588.394 596 594.99 596 600z"/>
<path style="fill:#5a7ea4; stroke:none;" d="M634.667 581.333L635.333 581.667L634.667 581.333z"/>
<path style="fill:#cacee2; stroke:none;" d="M776 581L777 582L776 581M779 581L780 582L779 581z"/>
<path style="fill:#5a7ea4; stroke:none;" d="M600 582L601 583L600 582z"/>
<path style="fill:#cacee2; stroke:none;" d="M637 582L638 583L637 582z"/>
<path style="fill:#5a7ea4; stroke:none;" d="M696 582L697 583L696 582M698 582L699 583L698 582M776 582L777 583L776 582z"/>
<path style="fill:#cacee2; stroke:none;" d="M598 583L599 584L598 583z"/>
<path style="fill:#5a7ea4; stroke:none;" d="M603 583L604 584L603 583z"/>
<path style="fill:#cacee2; stroke:none;" d="M604 583L604 584L634 584L604 583z"/>
<path style="fill:#5a7ea4; stroke:none;" d="M634 583L635 584L634 583M638 583L639 584L638 583z"/>
<path style="fill:#cacee2; stroke:none;" d="M696 583L697 584L696 583M699 583L700 584L699 583z"/>
<path style="fill:#5a7ea4; stroke:none;" d="M778 583L779 584L778 583z"/>
<path style="fill:#cacee2; stroke:none;" d="M597 584L598 585L597 584z"/>
<path style="fill:#5a7ea4; stroke:none;" d="M601 584L602 585L601 584z"/>
<path style="fill:#010101; stroke:none;" d="M598 600L640 600C640 595.656 640.783 589.856 637.486 586.434C632.921 581.695 605 581.608 600.434 586.318C597.086 589.771 598 595.61 598 600z"/>
<path style="fill:#cacee2; stroke:none;" d="M635 584L636 585L635 584z"/>
<path style="fill:#5a7ea4; stroke:none;" d="M636 584L637 585L636 584M639 584L640 585L639 584M699 584L700 585L699 584M775 584L776 585L775 584M597 585L598 586L597 585z"/>
<path style="fill:#cacee2; stroke:none;" d="M600 585L601 586L600 585z"/>
<path style="fill:#5a7ea4; stroke:none;" d="M637 585L638 586L637 585M640 585L641 586L640 585z"/>
<path style="fill:#cacee2; stroke:none;" d="M697 585L698 586L697 585M700 585L701 586L700 585M774 585L775 586L774 585z"/>
<path style="fill:#5a7ea4; stroke:none;" d="M777 585L778 586L777 585z"/>
<path style="fill:#cacee2; stroke:none;" d="M596 586L597 587L596 586z"/>
<path style="fill:#5a7ea4; stroke:none;" d="M599 586L600 587L599 586M638 586L639 587L638 586z"/>
<path style="fill:#cacee2; stroke:none;" d="M641 586L642 587L641 586z"/>
<path style="fill:#5a7ea4; stroke:none;" d="M698 586L699 587L698 586z"/>
<path style="fill:#cacee2; stroke:none;" d="M701 586L702 587L701 586M773 586L772 588L773 586z"/>
<path style="fill:#5a7ea4; stroke:none;" d="M598 587L599 588L598 587M641 587L642 588L641 587z"/>
<path style="fill:#cacee2; stroke:none;" d="M698 587L699 588L698 587M702 587L703 588L702 587z"/>
<path style="fill:#5a7ea4; stroke:none;" d="M773 587L774 588L773 587z"/>
<path style="fill:#cacee2; stroke:none;" d="M776 587L777 588L776 587M595.333 588.667L595.667 589.333L595.333 588.667M598 588L599 589L598 588z"/>
<path style="fill:#5a7ea4; stroke:none;" d="M639 588L640 589L639 588z"/>
<path style="fill:#cacee2; stroke:none;" d="M699 588L700 589L699 588M703 588L704 589L703 588M771 588L772 589L771 588M775 588L776 589L775 588M639 589L640 590L639 589M642 589L642 600L643 600L642 589M700 589L701 590L700 589M704 589L705 590L704 589M770 589L771 590L770 589z"/>
<path style="fill:#5a7ea4; stroke:none;" d="M774 589L775 590L774 589M595 590L595 600L596 600L595 590M597 590L597 600L598 600L597 590z"/>
<path style="fill:#cacee2; stroke:none;" d="M701 590L702 591L701 590z"/>
<path style="fill:#5a7ea4; stroke:none;" d="M705 590L706 591L705 590z"/>
<path style="fill:#cacee2; stroke:none;" d="M706 590L707 591L706 590M768 590L769 591L768 590z"/>
<path style="fill:#5a7ea4; stroke:none;" d="M769 590L770 591L769 590z"/>
<path style="fill:#cacee2; stroke:none;" d="M773 590L774 591L773 590M702 591L703 592L702 591z"/>
<path style="fill:#5a7ea4; stroke:none;" d="M703 591L704 592L703 591M707 591L708 592L707 591z"/>
<path style="fill:#cacee2; stroke:none;" d="M708 591L709 592L708 591M766 591L767 592L766 591z"/>
<path style="fill:#5a7ea4; stroke:none;" d="M767 591L768 592L767 591z"/>
<path style="fill:#cacee2; stroke:none;" d="M772 591L773 592L772 591M704 592L705 593L704 592z"/>
<path style="fill:#5a7ea4; stroke:none;" d="M710 592L711 593L710 592z"/>
<path style="fill:#cacee2; stroke:none;" d="M711 592L711 593L764 593L747 592L711 592z"/>
<path style="fill:#5a7ea4; stroke:none;" d="M764 592L765 593L764 592z"/>
<path style="fill:#cacee2; stroke:none;" d="M770 592L771 593L770 592z"/>
<path style="fill:#5a7ea4; stroke:none;" d="M706 593L707 594L706 593M768 593L769 594L768 593z"/>
<path style="fill:#cacee2; stroke:none;" d="M769 593L770 594L769 593M708 594L709 595L708 594z"/>
<path style="fill:#5a7ea4; stroke:none;" d="M709.667 594.333L710.333 594.667L709.667 594.333M764.667 594.333L765.333 594.667L764.667 594.333z"/>
<path style="fill:#cacee2; stroke:none;" d="M766 594L767 595L766 594M712 595L712 596L763 596C749.873 590.492 726.311 595 712 595z"/>
</svg>
